<svg width="4792" height="4619" viewBox="0 0 4792 4619" fill="none" xmlns="http://www.w3.org/2000/svg">
<path d="M473.49 24.9278C467.173 -0.513897 503.03 -8.36836 525.398 13.6584C751.984 236.146 1297.7 871.677 1174.93 1735.5C1020.91 2819.25 1314.43 3294.96 1676.42 3627.07C1676.42 3627.07 1182.27 3396.56 867.069 2909.75C92.8887 1714.84 586.185 478.098 473.49 24.9278Z" fill="#BDD0FB"/>
<path opacity="0.47" d="M661.316 412.7C687.44 461.535 707.93 512.247 726.542 563.814C730.982 576.791 736.104 589.597 740.202 602.574L752.667 641.676L758.985 661.312L764.448 681.119L775.547 720.733C803.55 826.769 823.016 935.024 837.017 1043.79L846.238 1125.58C848.458 1152.9 849.994 1180.22 852.043 1207.71L854.775 1248.69C855.288 1262.35 855.629 1276.18 855.971 1289.84L858.19 1372.14C858.532 1378.97 858.361 1385.8 858.19 1392.63L857.849 1413.12L857.166 1454.27L856.483 1495.43C856.312 1509.09 856.141 1522.92 855.117 1536.58L850.165 1618.71C848.457 1646.03 846.921 1673.52 845.042 1700.33C829.504 1916.32 847.433 2133.86 884.144 2347.3C888.584 2374.11 893.877 2400.57 899 2427.21C904.464 2453.67 909.927 2480.31 915.904 2506.78C927.856 2559.71 941.004 2612.3 955.347 2664.55C969.519 2716.97 985.057 2768.88 1001.79 2820.45C1010.16 2846.23 1018.87 2871.84 1027.92 2897.45C1036.97 2922.9 1046.36 2948.51 1056.26 2973.1L1056.43 2973.44C1060.53 2983.34 1055.58 2994.78 1045.67 2998.88C1035.77 3002.81 1024.5 2998.2 1020.4 2988.29C998.888 2936.9 980.276 2885.5 962.86 2833.25C945.443 2781.17 929.393 2728.58 914.538 2675.82C899.853 2622.89 886.535 2569.61 874.412 2516.17C868.265 2489.36 862.801 2462.55 857.166 2435.58C852.043 2408.6 846.579 2381.62 842.14 2354.64C837.188 2327.66 833.261 2300.51 828.821 2273.36C825.065 2246.21 821.137 2218.89 818.235 2191.57C811.575 2136.93 807.136 2082.12 803.721 2027.31L801.501 1986.16C800.818 1972.5 800.648 1958.67 800.135 1945.01C799.111 1917.52 799.282 1890.03 799.111 1862.54C799.794 1807.56 801.331 1752.4 805.941 1697.59L818.235 1534.87C819.43 1521.38 819.772 1507.72 820.113 1494.23L821.479 1453.59L822.845 1412.95L823.528 1392.63C823.87 1385.8 824.04 1379.14 823.699 1372.31L822.845 1290.87C822.674 1277.38 822.674 1263.72 822.333 1250.23L820.113 1209.59C818.576 1182.44 817.381 1155.46 815.673 1128.31L808.331 1047.21C797.062 939.293 780.328 831.721 755.057 726.197L745.325 686.583L740.373 666.776L734.738 647.14L723.639 608.038C719.883 594.89 715.443 582.084 711.345 569.278C707.247 556.301 703.149 543.324 698.368 530.688C693.587 518.053 689.319 505.076 684.367 492.44C674.463 467.169 664.389 441.898 652.437 417.823L652.266 417.652C650.9 415.091 652.095 411.846 654.656 410.651C656.876 409.285 659.95 410.139 661.316 412.7Z" fill="white"/>
<path d="M777.767 3370.94C777.767 3370.94 1051.65 3080.67 942.711 2706.73C841.627 2359.76 554.597 1546.48 686.586 1156.32C692.392 1139.07 657.047 1137.19 640.313 1153.93C461.709 1333.72 61.9829 1794.07 45.9324 2330.73C25.1009 3022.95 777.767 3370.94 777.767 3370.94Z" fill="#91B3FA"/>
<path opacity="0.45" d="M514.641 1508.91C470.075 1573.63 436.608 1645.17 410.825 1718.94C385.042 1792.7 368.308 1869.37 360.454 1946.89C356.526 1985.65 355.331 2024.58 356.014 2063.51L357.039 2092.71C357.551 2102.44 358.575 2112.17 359.258 2121.74L360.283 2136.25L361.99 2150.76C363.186 2160.5 364.21 2170.06 365.405 2179.79L370.016 2208.65C370.869 2213.43 371.552 2218.21 372.406 2222.99L375.309 2237.33L381.285 2265.85L388.457 2294.02L392.042 2308.19C393.408 2312.8 394.774 2317.59 396.14 2322.2L404.507 2350.2C410.313 2368.81 416.63 2387.42 422.948 2406.03C448.219 2480.14 475.539 2553.73 504.567 2626.47C519.08 2662.84 534.106 2699.21 549.303 2735.24C564.5 2771.44 579.867 2807.47 595.406 2843.5C610.944 2879.52 626.653 2915.55 641.85 2951.92C657.046 2988.29 672.072 3024.66 685.22 3061.89C698.368 3099.11 709.979 3137.02 718.004 3175.95C721.761 3195.41 724.663 3215.05 725.859 3234.85C726.883 3254.66 726.371 3274.64 723.98 3294.28C723.81 3295.81 722.443 3297.01 720.907 3296.67C719.37 3296.5 718.346 3295.13 718.516 3293.59C720.053 3274.13 719.712 3254.66 718.004 3235.37C716.126 3216.07 712.711 3196.78 708.442 3177.82C699.563 3139.92 686.928 3102.87 672.755 3066.5C644.24 2993.59 611.456 2922.38 579.014 2850.67C513.616 2707.75 452.829 2562.1 402.117 2412.86C395.799 2394.25 389.481 2375.64 383.505 2356.69L374.967 2328.17C373.601 2323.39 372.065 2318.61 370.699 2313.83L367.113 2299.32L359.941 2270.46L353.965 2241.26L351.062 2226.75C350.038 2221.8 349.526 2217.01 348.672 2212.06L344.062 2182.69C333.646 2103.98 332.963 2023.9 342.183 1945.18C347.135 1905.91 354.136 1866.81 363.698 1828.39C373.26 1789.97 385.212 1752.23 399.555 1715.35C413.728 1678.47 430.632 1642.61 449.414 1607.95C468.368 1573.29 489.028 1539.65 513.616 1508.91C513.787 1508.74 513.958 1508.74 514.129 1508.91C514.641 1508.4 514.641 1508.74 514.641 1508.91Z" fill="white"/>
<path d="M1420.13 1341.58V469.39C1420.13 449.583 1432.59 431.825 1451.2 425.507C1546.48 392.894 1641.93 397.504 1737.21 438.996C1757.7 447.875 1770.51 468.536 1768.97 490.904L1710.92 1339.87L1420.13 1341.58Z" fill="url(#paint0_linear_7_14958)"/>
<path d="M1474.94 506.1V718.513C1474.94 735.759 1488.43 749.931 1505.5 750.956L1659.86 760.176C1677.28 761.2 1692.3 748.394 1694.18 730.978L1716.72 512.418C1718.6 494.66 1705.79 478.78 1688.03 476.731C1642.27 471.608 1557.41 464.437 1501.92 473.828C1486.38 476.56 1474.94 490.22 1474.94 506.1Z" fill="#7D97F4"/>
<path d="M1780.58 517.2L1729.19 1339.7H2037.56V540.08C2037.56 517.029 2022.88 496.71 2001.19 489.197C1960.38 475.195 1891.06 457.779 1822.93 469.902C1799.36 474.171 1781.95 493.636 1780.58 517.2Z" fill="url(#paint1_linear_7_14958)"/>
<path d="M1781.26 1035.26L1770.85 1264.57C1769.99 1283.53 1785.19 1299.41 1804.14 1299.41H1959.87C1978.31 1299.41 1993.17 1284.38 1993.17 1266.11V1036.79C1993.17 1018.35 1978.14 1003.5 1959.87 1003.5H1814.56C1796.8 1003.32 1782.12 1017.33 1781.26 1035.26Z" fill="#7D97F4"/>
<path d="M2334.32 1339.7V489.366C2334.32 468.193 2320.49 449.24 2300.35 443.093C2209.51 415.432 2130.62 430.97 2089.13 443.776C2070.69 449.411 2058.22 466.486 2058.22 485.61V1339.7H2334.32Z" fill="#7D97F4"/>
<path d="M2085.37 503.539L2092.03 629.04C2092.88 644.749 2105.86 656.872 2121.4 656.872H2269.27C2285.15 656.872 2298.12 644.237 2298.64 628.357L2302.73 504.563C2303.25 490.391 2293.51 477.756 2279.68 474.853C2243.83 467.169 2173.14 456.412 2107.74 473.316C2094.08 476.902 2084.69 489.537 2085.37 503.539Z" fill="#91B3FA"/>
<path d="M2096.98 711.171C2098.01 726.538 2110.81 738.661 2126.35 738.661H2267.9C2284.46 738.661 2297.61 725.172 2297.44 708.609C2297.1 692.559 2283.95 679.752 2267.9 679.752H2126.35C2109.27 679.582 2095.79 694.096 2096.98 711.171Z" fill="#91B3FA"/>
<path d="M3295.13 517.199C3295.13 517.199 3270.03 360.621 3346.87 309.909C3350.29 307.689 3354.9 310.25 3354.9 314.348V344.059C3354.9 351.23 3363.43 354.816 3368.56 350.035C3385.12 334.497 3414.66 310.762 3446.08 305.811C3454.44 304.445 3460.93 312.811 3457.35 320.495C3438.05 361.646 3387.68 477.073 3389.56 552.544L3295.13 517.199Z" fill="#7D97F4"/>
<path d="M3213.52 517.2L3162.12 1339.7H3470.49V540.08C3470.49 517.029 3455.81 496.71 3434.12 489.197C3393.32 475.195 3323.99 457.779 3255.86 469.902C3232.47 474.171 3215.05 493.636 3213.52 517.2Z" fill="url(#paint2_linear_7_14958)"/>
<path d="M3214.37 1035.25L3203.95 1264.57C3203.1 1283.52 3218.3 1299.4 3237.25 1299.4H3392.97C3411.42 1299.4 3426.27 1284.38 3426.27 1266.11V1036.79C3426.27 1018.35 3411.24 1003.49 3392.97 1003.49H3247.67C3229.91 1003.32 3215.22 1017.33 3214.37 1035.25Z" fill="#7D97F4"/>
<path d="M1196.96 470.073C1173.74 474.171 1156.32 493.637 1154.78 517.2L1103.39 1339.7H1411.76V540.081C1411.76 517.029 1397.08 496.71 1375.39 489.197C1334.58 475.366 1265.09 457.95 1196.96 470.073Z" fill="url(#paint3_linear_7_14958)"/>
<path d="M1155.64 1035.26L1145.22 1264.57C1144.37 1283.53 1159.56 1299.41 1178.52 1299.41H1334.24C1352.68 1299.41 1367.54 1284.38 1367.54 1266.11V1036.79C1367.54 1018.35 1352.51 1003.5 1334.24 1003.5H1188.93C1171.17 1003.32 1156.49 1017.33 1155.64 1035.26Z" fill="#7D97F4"/>
<path d="M3767.26 1339.7V489.366C3767.26 468.193 3753.43 449.24 3733.28 443.093C3642.44 415.432 3563.55 430.97 3522.06 443.776C3503.62 449.411 3491.15 466.486 3491.15 485.61V1339.7H3767.26Z" fill="url(#paint4_linear_7_14958)"/>
<path d="M3518.47 503.539L3525.13 629.04C3525.99 644.749 3538.96 656.872 3554.5 656.872H3702.37C3718.25 656.872 3731.23 644.237 3731.74 628.357L3735.84 504.563C3736.35 490.391 3726.62 477.756 3712.79 474.853C3676.93 467.169 3606.24 456.412 3540.84 473.316C3527.18 476.902 3517.62 489.537 3518.47 503.539Z" fill="#7D97F4"/>
<path d="M3529.91 711.171C3530.94 726.538 3543.75 738.661 3559.28 738.661H3700.84C3717.4 738.661 3730.55 725.172 3730.38 708.609C3730.03 692.559 3716.89 679.752 3700.84 679.752H3559.28C3542.21 679.582 3528.72 694.096 3529.91 711.171Z" fill="#7D97F4"/>
<path d="M2357.03 495.172L2346.1 1343.8H2839.23L2802.35 517.711C2801.32 493.806 2785.96 473.145 2763.42 465.12C2702.12 443.264 2568.76 411.163 2387.94 456.241C2370.01 460.681 2357.37 476.731 2357.03 495.172Z" fill="url(#paint5_linear_7_14958)"/>
<path d="M2827.45 513.101L2861.6 1338.85H3153.58L3175.78 503.88C3176.46 481 3161.78 460.168 3139.75 453.509C3044.81 424.994 2950.39 422.262 2857.33 464.779C2838.55 473.487 2826.6 492.44 2827.45 513.101Z" fill="#7D97F4"/>
<path d="M2854.08 544.177L2857.5 589.084C2858.52 602.744 2870.31 612.989 2883.97 612.135L3122.5 598.304C3134.97 597.621 3145.04 587.718 3146.07 575.253L3148.46 544.177C3149.48 529.663 3138.04 517.198 3123.53 517.198H2879.01C2864.33 517.198 2852.89 529.663 2854.08 544.177Z" fill="#91B3FA"/>
<path d="M2863.82 651.409V667.801C2863.82 680.437 2874.41 690.511 2887.04 689.999L3115.68 680.437C3127.63 679.924 3137.02 670.192 3137.02 658.239V640.823C3137.02 628.187 3126.43 617.942 3113.8 618.625L2885.16 629.212C2873.21 629.724 2863.82 639.627 2863.82 651.409Z" fill="#91B3FA"/>
<path d="M4118.83 500.294L4152.98 1326.04H4444.96L4467.16 491.074C4467.84 468.193 4453.16 447.362 4431.13 440.703C4336.2 412.187 4241.77 409.455 4148.71 451.972C4129.93 460.509 4117.98 479.634 4118.83 500.294Z" fill="url(#paint6_linear_7_14958)"/>
<path d="M4145.47 531.2L4148.88 576.107C4149.91 589.767 4161.69 600.012 4175.35 599.159L4413.89 585.328C4426.35 584.645 4436.43 574.741 4437.45 562.277L4439.84 531.2C4440.87 516.686 4429.43 504.222 4414.91 504.222H4170.57C4155.89 504.222 4144.27 516.686 4145.47 531.2Z" fill="#7D97F4"/>
<path d="M4155.2 638.602V654.994C4155.2 667.63 4165.79 677.704 4178.42 677.192L4407.06 667.63C4419.01 667.118 4428.4 657.385 4428.4 645.432V628.016C4428.4 615.38 4417.81 605.135 4405.18 605.818L4176.54 616.405C4164.59 616.917 4155.2 626.65 4155.2 638.602Z" fill="#7D97F4"/>
<path d="M3834.02 507.808L3782.62 1330.31H4091V530.859C4091 507.808 4076.31 487.489 4054.63 479.976C4013.82 465.975 3944.5 448.558 3876.37 460.681C3852.97 464.95 3835.56 484.245 3834.02 507.808Z" fill="#7D97F4"/>
<path d="M3845.63 1025.86L3835.22 1255.18C3834.36 1274.13 3849.56 1290.01 3868.51 1290.01H4024.24C4042.68 1290.01 4057.53 1274.99 4057.53 1256.72V1027.4C4057.53 1008.96 4042.51 994.104 4024.24 994.104H3878.93C3861 993.933 3846.31 1008.11 3845.63 1025.86Z" fill="#91B3FA"/>
<path d="M4508.99 4069.31V3235.2C4508.99 3216.24 4497.04 3199.34 4479.28 3193.19C4388.1 3162.12 4296.92 3166.38 4205.74 3206.17C4186.11 3214.71 4173.81 3234.51 4175.35 3255.69L4230.84 4067.43L4508.99 4069.31Z" fill="url(#paint7_linear_7_14958)"/>
<path d="M4456.74 3270.37V3473.56C4456.74 3489.96 4443.94 3503.62 4427.55 3504.64L4279.85 3513.52C4263.28 3514.54 4248.77 3502.25 4247.06 3485.69L4225.38 3276.69C4223.67 3259.78 4235.79 3244.42 4252.87 3242.54C4296.75 3237.59 4377.86 3230.76 4430.79 3239.81C4445.82 3242.2 4456.74 3255.17 4456.74 3270.37Z" fill="#7D97F4"/>
<path d="M4164.42 3280.96L4213.6 4067.43H3918.88V3302.81C3918.88 3280.79 3932.88 3261.32 3953.71 3254.15C3992.65 3240.83 4059.07 3224.1 4124.12 3235.71C4146.32 3239.98 4163.05 3258.42 4164.42 3280.96Z" fill="#7D97F4"/>
<path d="M4163.74 3776.3L4173.64 3995.55C4174.49 4013.65 4159.98 4028.84 4141.71 4028.84H3992.82C3975.23 4028.84 3960.89 4014.5 3960.89 3996.91V3777.67C3960.89 3760.08 3975.23 3745.74 3992.82 3745.74H4131.81C4148.88 3745.91 4162.88 3759.23 4163.74 3776.3Z" fill="#91B3FA"/>
<path d="M3634.92 4067.6V3254.49C3634.92 3234.17 3648.07 3216.07 3667.54 3210.27C3754.28 3183.8 3829.92 3198.66 3869.54 3210.95C3887.12 3216.41 3899.07 3232.64 3899.07 3250.91V4067.6H3634.92V4067.6Z" fill="#91B3FA"/>
<path d="M3872.95 3268.15L3866.46 3388.19C3865.61 3403.22 3853.31 3414.83 3838.29 3414.83H3696.91C3681.71 3414.83 3669.25 3402.7 3668.73 3387.51L3664.81 3269.01C3664.29 3255.35 3673.69 3243.39 3687 3240.49C3721.32 3233.15 3788.94 3222.9 3851.44 3239.12C3864.58 3242.54 3873.63 3254.49 3872.95 3268.15Z" fill="url(#paint8_linear_7_14958)"/>
<path d="M3862.02 3466.56C3861 3481.42 3848.7 3492.86 3833.85 3492.86H3698.44C3682.74 3492.86 3669.93 3479.88 3670.27 3464.17C3670.61 3448.8 3683.08 3436.51 3698.44 3436.51H3833.85C3850.24 3436.34 3863.05 3450.17 3862.02 3466.56Z" fill="url(#paint9_linear_7_14958)"/>
<path d="M2716.12 3280.96C2716.12 3280.96 2740.2 3131.21 2666.6 3082.89C2663.36 3080.67 2658.92 3083.23 2658.92 3087.16V3115.67C2658.92 3122.5 2650.89 3125.92 2645.94 3121.31C2630.06 3106.45 2601.89 3083.74 2571.84 3078.96C2563.81 3077.77 2557.66 3085.62 2561.08 3092.96C2579.52 3132.41 2627.67 3242.71 2625.79 3314.94L2716.12 3280.96Z" fill="#7D97F4"/>
<path d="M2794.15 3280.96L2843.33 4067.43H2548.44V3302.82C2548.44 3280.79 2562.44 3261.32 2583.28 3254.15C2622.21 3240.83 2688.63 3224.1 2753.68 3235.71C2776.22 3239.98 2792.79 3258.42 2794.15 3280.96Z" fill="url(#paint10_linear_7_14958)"/>
<path d="M2793.47 3776.31L2803.37 3995.55C2804.23 4013.65 2789.71 4028.84 2771.44 4028.84H2622.55C2604.96 4028.84 2590.62 4014.5 2590.62 3996.91V3777.67C2590.62 3760.08 2604.96 3745.74 2622.55 3745.74H2761.54C2778.61 3745.91 2792.62 3759.23 2793.47 3776.31Z" fill="#7D97F4"/>
<path d="M2264.83 4067.6V3254.49C2264.83 3234.17 2277.98 3216.07 2297.44 3210.27C2384.18 3183.8 2459.82 3198.66 2499.44 3210.95C2517.03 3216.41 2528.98 3232.64 2528.98 3250.91V4067.6H2264.83V4067.6Z" fill="url(#paint11_linear_7_14958)"/>
<path d="M2502.68 3268.15L2496.19 3388.19C2495.34 3403.22 2483.05 3414.83 2468.02 3414.83H2326.64C2311.44 3414.83 2298.98 3402.7 2298.47 3387.51L2294.54 3269.01C2294.03 3255.35 2303.42 3243.39 2316.74 3240.49C2351.06 3233.15 2418.67 3222.9 2481.17 3239.12C2494.32 3242.54 2503.37 3254.49 2502.68 3268.15Z" fill="#7D97F4"/>
<path d="M2491.75 3466.56C2490.73 3481.42 2478.44 3492.86 2463.58 3492.86H2328.18C2312.47 3492.86 2299.66 3479.88 2300 3464.17C2300.34 3448.8 2312.81 3436.51 2328.18 3436.51H2463.58C2479.97 3436.34 2492.78 3450.17 2491.75 3466.56Z" fill="#7D97F4"/>
<path d="M3613.07 3259.96L3623.49 4071.36H3152.04L3187.39 3281.47C3188.41 3258.59 3203.1 3238.78 3224.61 3231.1C3283.18 3210.1 3410.73 3179.53 3583.53 3222.56C3600.78 3227 3612.9 3242.37 3613.07 3259.96Z" fill="url(#paint12_linear_7_14958)"/>
<path d="M3163.48 3277.2L3130.7 4066.75H2851.52L2830.35 3268.32C2829.84 3246.3 2843.84 3226.49 2864.84 3220.17C2955.68 3192.85 3045.84 3190.29 3134.97 3230.93C3152.9 3239.3 3164.17 3257.39 3163.48 3277.2Z" fill="#7D97F4"/>
<path d="M3138.04 3306.91L3134.8 3349.77C3133.77 3362.75 3122.5 3372.65 3109.53 3371.8L2881.41 3358.48C2869.45 3357.8 2859.89 3348.4 2858.87 3336.28L2856.65 3306.57C2855.62 3292.74 2866.55 3280.79 2880.55 3280.79H3114.31C3128.14 3280.96 3139.07 3292.91 3138.04 3306.91Z" fill="#91B3FA"/>
<path d="M3128.48 3409.36V3425.07C3128.48 3437.19 3118.41 3446.76 3106.28 3446.24L2887.72 3437.19C2876.28 3436.68 2867.4 3427.29 2867.4 3416.02V3399.46C2867.4 3387.33 2877.48 3377.6 2889.6 3378.28L3108.16 3388.36C3119.6 3388.7 3128.48 3398.09 3128.48 3409.36Z" fill="#91B3FA"/>
<path d="M1957.99 4058.55V3224.44C1957.99 3205.49 1946.04 3188.58 1928.28 3182.44C1837.1 3151.36 1745.92 3155.63 1654.74 3195.41C1635.1 3203.95 1622.81 3223.76 1624.35 3244.93L1679.84 4056.68L1957.99 4058.55Z" fill="url(#paint13_linear_7_14958)"/>
<path d="M1905.57 3259.61V3462.81C1905.57 3479.2 1892.76 3492.86 1876.37 3493.88L1728.67 3502.76C1712.11 3503.79 1697.6 3491.49 1695.89 3474.93L1674.2 3265.93C1672.5 3249.03 1684.62 3233.66 1701.69 3231.78C1745.58 3226.83 1826.68 3220 1879.62 3229.05C1894.64 3231.44 1905.57 3244.42 1905.57 3259.61Z" fill="#7D97F4"/>
<path d="M1613.42 3270.2L1662.59 4056.68H1367.71V3292.06C1367.71 3270.03 1381.71 3250.57 1402.54 3243.39C1441.47 3230.08 1507.89 3213.34 1572.95 3224.95C1595.32 3229.05 1612.05 3247.66 1613.42 3270.2Z" fill="#7D97F4"/>
<path d="M1612.56 3765.55L1622.47 3984.79C1623.32 4002.89 1608.81 4018.09 1590.54 4018.09H1441.64C1424.05 4018.09 1409.71 4003.74 1409.71 3986.16V3766.91C1409.71 3749.33 1424.05 3734.98 1441.64 3734.98H1580.63C1597.71 3735.15 1611.88 3748.47 1612.56 3765.55Z" fill="#91B3FA"/>
<path d="M1083.92 4056.67V3243.56C1083.92 3223.24 1097.07 3205.14 1116.53 3199.34C1203.27 3172.87 1278.92 3187.73 1318.53 3200.02C1336.12 3205.49 1348.07 3221.71 1348.07 3239.98V4056.67H1083.92V4056.67Z" fill="url(#paint14_linear_7_14958)"/>
<path d="M1321.77 3257.22L1315.29 3377.26C1314.43 3392.29 1302.14 3403.9 1287.11 3403.9H1145.9C1130.71 3403.9 1118.24 3391.77 1117.73 3376.58L1113.8 3258.08C1113.29 3244.42 1122.68 3232.47 1136 3229.56C1170.32 3222.22 1237.94 3211.98 1300.43 3228.2C1313.58 3231.78 1322.63 3243.73 1321.77 3257.22Z" fill="url(#paint15_linear_7_14958)"/>
<path d="M1310.85 3455.64C1309.82 3470.49 1297.53 3481.93 1282.67 3481.93H1147.27C1131.56 3481.93 1118.75 3468.95 1119.1 3453.25C1119.44 3437.88 1131.9 3425.58 1147.27 3425.58H1282.67C1299.07 3425.58 1312.04 3439.41 1310.85 3455.64Z" fill="url(#paint16_linear_7_14958)"/>
<path d="M2171.26 3225.12C2193.45 3229.05 2210.19 3247.66 2211.55 3270.2L2260.73 4056.68H1965.84V3292.06C1965.84 3270.03 1979.85 3250.57 2000.68 3243.39C2039.78 3230.25 2106.2 3213.68 2171.26 3225.12Z" fill="#7D97F4"/>
<path d="M2210.87 3765.55L2220.77 3984.79C2221.63 4002.89 2207.11 4018.09 2188.84 4018.09H2039.95C2022.36 4018.09 2008.02 4003.74 2008.02 3986.16V3766.91C2008.02 3749.33 2022.36 3734.98 2039.95 3734.98H2178.94C2196.02 3735.15 2210.02 3748.47 2210.87 3765.55Z" fill="#91B3FA"/>
<path d="M1627.08 1981.21L1616.15 2829.84H2109.27L2072.39 2003.75C2071.37 1979.84 2056 1959.18 2033.46 1951.16C1972.16 1929.3 1838.81 1897.2 1657.98 1942.28C1640.05 1946.72 1627.42 1962.77 1627.08 1981.21Z" fill="url(#paint17_linear_7_14958)"/>
<path d="M3761.96 1994.7L3796.11 2820.45H4088.1L4110.29 1985.48C4110.98 1962.6 4096.29 1941.77 4074.27 1935.11C3979.33 1906.59 3884.9 1903.86 3791.85 1946.38C3773.06 1955.08 3761.11 1974.04 3761.96 1994.7Z" fill="url(#paint18_linear_7_14958)"/>
<path d="M3788.6 2025.77L3792.02 2070.68C3793.04 2084.34 3804.82 2094.59 3818.48 2093.73L4057.02 2079.9C4069.48 2079.22 4079.56 2069.32 4080.58 2056.85L4082.97 2025.77C4084 2011.26 4072.56 1998.8 4058.04 1998.8H3813.7C3799.02 1998.8 3787.58 2011.26 3788.6 2025.77Z" fill="#7D97F4"/>
<path d="M3798.5 2133.01V2149.4C3798.5 2162.03 3809.09 2172.11 3821.73 2171.6L4050.36 2162.03C4062.31 2161.52 4071.7 2151.79 4071.7 2139.84V2122.42C4071.7 2109.78 4061.12 2099.54 4048.48 2100.22L3819.85 2110.81C3807.9 2111.32 3798.5 2121.05 3798.5 2133.01Z" fill="#7D97F4"/>
<path d="M4259.02 1849.73C4259.02 1849.73 4232.72 1686.32 4312.97 1633.39C4316.56 1631 4321.34 1633.73 4321.34 1638V1669.08C4321.34 1676.42 4330.22 1680.35 4335.51 1675.23C4352.76 1659 4383.66 1634.25 4416.45 1629.12C4425.16 1627.76 4431.99 1636.47 4428.23 1644.49C4408.08 1687.52 4355.49 1807.9 4357.54 1886.78L4259.02 1849.73Z" fill="#7D97F4"/>
<path d="M4173.81 1849.73L4120.03 2825.91H4441.89V1873.64C4441.89 1849.56 4426.52 1828.39 4403.81 1820.53C4361.3 1806.02 4288.9 1787.75 4217.7 1800.39C4193.45 1804.82 4175.35 1825.14 4173.81 1849.73Z" fill="url(#paint19_linear_7_14958)"/>
<path d="M4174.67 2390.5L4163.74 2747.54C4162.88 2767.34 4178.59 2783.91 4198.57 2783.91H4361.13C4380.42 2783.91 4395.96 2768.37 4395.96 2749.07V2392.03C4395.96 2372.74 4380.42 2357.2 4361.13 2357.2H4209.5C4190.72 2357.2 4175.52 2371.89 4174.67 2390.5Z" fill="#7D97F4"/>
<path d="M1100.31 1815.07L1088.87 2818.57H1603.51L1564.92 1838.8C1563.73 1813.87 1547.68 1792.19 1524.29 1783.82C1460.25 1760.94 1321.09 1727.47 1132.41 1774.6C1113.8 1779.21 1100.65 1795.77 1100.31 1815.07Z" fill="url(#paint20_linear_7_14958)"/>
<path d="M4781 2818.57H935.71V3063.08H4781V2818.57Z" fill="#91B3FA"/>
<path d="M4750.78 4057.19H905.486V4301.7H4750.78V4057.19Z" fill="#91B3FA"/>
<path d="M4710.14 1321.94H972.763V1566.46H4710.14V1321.94Z" fill="#91B3FA"/>
<path d="M982.837 305.641H750.788V4424.98H982.837V305.641Z" fill="#7D97F4"/>
<path d="M4791.76 340.986H4559.71V4460.33H4791.76V340.986Z" fill="#7D97F4"/>
<path d="M2115.59 2818.4L2012.8 1577.05C2010.58 1550.92 2030.05 1527.87 2056.34 1525.65C2149.06 1518.31 2387.6 1520.87 2849.48 1649.96L2909.75 2834.62L2115.59 2818.4Z" fill="url(#paint21_linear_7_14958)"/>
<path d="M2193.28 2819.93L2085.37 1504.82C2083.66 1483.47 2100.4 1465.2 2121.74 1464.86C2250.83 1463.15 2662.67 1472.72 2849.3 1649.78L2909.58 2834.45L2193.28 2819.93Z" fill="#91B3FA"/>
<path d="M2239.39 2800.81C2222.48 2800.47 2208.48 2787.32 2207.12 2770.59L2106.2 1524.62C2104.5 1503.96 2120.55 1486.21 2141.04 1485.86C2262.61 1484.33 2645.09 1493.04 2828.65 1655.42C2835.31 1661.4 2839.4 1669.76 2839.92 1678.64L2895.07 2779.12C2896.09 2798.25 2880.55 2814.13 2861.43 2813.79L2239.39 2800.81Z" fill="white"/>
<path d="M2164.6 1576.02L2226.92 2288.05C2229.31 2314.51 2251.17 2334.83 2277.64 2335L2760.35 2340.13C2789.71 2340.47 2813.45 2316.22 2812.42 2286.85L2791.93 1693.67C2791.25 1674.37 2779.81 1656.96 2762.39 1648.76C2682.48 1611.37 2447.02 1512.33 2214.46 1519.84C2184.92 1521.04 2162.04 1546.65 2164.6 1576.02Z" fill="#BDD0FB"/>
<path d="M2241.61 2443.94L2245.19 2462.04C2247.41 2473.48 2257.32 2481.68 2268.93 2482.02L2779.64 2491.24C2794.67 2491.58 2806.28 2478.43 2804.57 2463.58L2801.15 2439.33C2799.62 2427.04 2789.71 2418.33 2777.25 2418.16L2266.02 2414.74C2250.49 2414.57 2238.7 2428.75 2241.61 2443.94Z" fill="#BDD0FB"/>
<path d="M2252.88 2576.62L2254.75 2601.03C2255.78 2614.01 2266.71 2624.08 2279.85 2623.74L2779.13 2613.67C2793.64 2613.33 2804.57 2600.69 2803.03 2586.35L2802.69 2586.01C2801.33 2573.71 2791.59 2564.83 2779.3 2564.49L2278.15 2550.15C2263.46 2549.81 2251.68 2562.1 2252.88 2576.62Z" fill="#BDD0FB"/>
<path d="M2258.34 2713.39L2261.07 2734.39C2262.27 2743.1 2269.61 2749.59 2278.32 2749.42L2804.91 2744.8C2816.01 2744.63 2824.21 2734.22 2821.47 2723.29L2812.25 2686.41C2810.37 2678.55 2803.2 2673.09 2795.01 2673.26L2280.03 2687.6C2266.88 2688.29 2256.63 2700.24 2258.34 2713.39Z" fill="#BDD0FB"/>
<path d="M2875.94 1646.88C2875.94 1646.88 3229.05 1399.47 3679.15 1528.55C3706.13 1536.24 3724.74 1561 3724.91 1589L3733.45 2826.08L2909.58 2834.79L2875.94 1646.88Z" fill="url(#paint22_linear_7_14958)"/>
<path d="M3652.51 1516.09L3678.81 2828.81L2909.41 2834.79L2849.14 1650.13C2849.14 1650.13 3222.57 1405.1 3587.63 1444.88C3624.34 1448.64 3651.83 1479.55 3652.51 1516.09Z" fill="#91B3FA"/>
<path d="M3639.71 1536.75L3664.98 2791.42C3665.32 2812.42 3648.24 2829.67 3627.07 2829.15L2956.02 2815.32C2935.53 2814.98 2918.8 2798.76 2917.78 2778.27L2861.26 1666.35C2861.26 1666.35 3223.25 1428.83 3577.04 1467.42C3612.39 1471.35 3639.02 1501.23 3639.71 1536.75Z" fill="white"/>
<path d="M3011.18 1662.42C2972.59 1673.18 2946.98 1709.55 2949.71 1749.5C2960.64 1912.74 2988.13 2322.03 2999.05 2454.53C3001.1 2478.43 3021.25 2496.87 3045.33 2496.53L3543.06 2489.36C3572.43 2489.02 3595.83 2464.77 3595.31 2435.58L3581.65 1594.12C3581.14 1567.14 3559.63 1545.11 3532.65 1544.26C3452.4 1541.53 3147.09 1624.34 3011.18 1662.42Z" fill="#BDD0FB"/>
<path d="M3023.81 2582.59L3568.5 2593.69C3581.48 2594.03 3591.9 2604.79 3591.55 2617.77V2618.11C3591.21 2631.08 3580.46 2641.5 3567.48 2641.16L3022.79 2630.06C3009.81 2629.72 2999.39 2618.96 2999.74 2605.98V2605.64C2999.91 2592.67 3010.66 2582.25 3023.81 2582.59Z" fill="#BDD0FB"/>
<path d="M2997.01 2714.24L2997.35 2728.92C2997.52 2741.56 3007.76 2751.81 3020.4 2752.15L3565.43 2764.78C3578.75 2765.12 3589.85 2754.2 3589.51 2740.88C3589.34 2728.41 3579.43 2718.34 3567.14 2717.83L3021.76 2690.51C3008.1 2689.48 2996.66 2700.58 2997.01 2714.24Z" fill="#BDD0FB"/>
<path d="M3647.9 4484.92C3647.9 4484.92 3655.93 4529.99 3659.68 4574.56C3661.22 4591.98 3647.73 4607.17 3630.31 4607.86C3570.89 4610.25 3443.86 4615.2 3398.27 4613.15C3391.44 4612.81 3387 4605.81 3389.39 4599.49C3391.44 4594.2 3395.53 4589.76 3400.83 4587.37L3610.85 4490.89L3647.9 4484.92Z" fill="url(#paint23_linear_7_14958)"/>
<path d="M3654.39 4458.45L3648.07 4512.41C3648.07 4512.41 3611.36 4529.48 3586.26 4510.19L3601.46 4450.08L3654.39 4458.45Z" fill="url(#paint24_linear_7_14958)"/>
<path d="M3649.61 3444.88C3652.34 3458.88 3664.47 4147.51 3590.87 4456.06C3589.68 4461.01 3592.24 4466.3 3597.02 4468.18C3608.29 4472.79 3630.49 4479.45 3656.95 4480.31C3665.15 4480.65 3672.49 4475.18 3674.88 4467.33C3695.88 4395.78 3796.8 4037.04 3809.94 3694.51C3824.63 3311.69 3809.94 3681.54 3809.94 3681.54L3801.41 3444.88H3649.61Z" fill="url(#paint25_linear_7_14958)"/>
<path d="M3889.34 4508.48C3889.34 4508.48 3901.98 4531.19 3914.27 4591.63C3916.49 4602.56 3908.81 4612.98 3897.71 4614.17C3878.07 4616.05 3847.85 4618.61 3823.77 4618.44C3812.68 4618.44 3803.97 4608.71 3805.33 4597.61C3808.07 4575.58 3816.43 4539.38 3842.22 4511.04L3889.34 4508.48Z" fill="url(#paint26_linear_7_14958)"/>
<path d="M3900.61 4439.15L3885.59 4520.6C3885.59 4520.6 3870.73 4531.53 3841.53 4523.68L3848.7 4435.91L3900.61 4439.15Z" fill="url(#paint27_linear_7_14958)"/>
<path d="M3940.91 3466.05C4001.18 3829.24 3927.93 4363.85 3903.17 4468.52C3901.64 4475.01 3896.51 4479.79 3890.03 4480.99C3878.93 4482.87 3860.83 4484.23 3842.9 4479.11C3836.75 4477.4 3832.48 4471.77 3832.14 4465.28C3828.9 4380.76 3834.87 3861.34 3778.7 3656.09C3775.79 3645.68 3769.48 3636.63 3760.77 3630.31L3651.83 3552.96L3643.46 3427.8L3940.91 3466.05Z" fill="url(#paint28_linear_7_14958)"/>
<path d="M3557.4 2777.76C3737.72 2774.85 3936.81 2825.06 3936.81 2825.06C3990.6 3138.72 3946.2 3500.71 3946.2 3500.71C3806.53 3537.25 3649.1 3478.34 3649.1 3478.34C3625.88 3347.21 3517.62 2978.22 3517.62 2978.22C3429.51 2967.29 3356.94 2941.85 3297.01 2908.21C3342.6 2855.28 3364.12 2788 3373.51 2748.39C3437.2 2768.02 3501.74 2778.61 3557.4 2777.76Z" fill="url(#paint29_linear_7_14958)"/>
<path d="M3024.49 2511.9C3042.25 2490.56 3064.62 2500.63 3064.62 2500.63C3091.09 2612.81 3230.42 2703.65 3373.34 2748.05C3363.94 2787.83 3342.43 2855.11 3296.84 2907.87C3059.67 2774.68 3024.49 2511.9 3024.49 2511.9Z" fill="url(#paint30_linear_7_14958)"/>
<path d="M3028.76 2517.36C3026.88 2523.34 3048.4 2532.22 3061.03 2508.14C3061.55 2496.53 3068.55 2447.01 3061.55 2437.62C3024.84 2387.42 2953.46 2324.59 2953.46 2324.59C2941.34 2336.54 2951.41 2348.15 2951.41 2348.15L2986.08 2384.18C2978.9 2397.33 2970.02 2408.25 2965.93 2424.13C2962.85 2436.09 2964.73 2448.89 2970.71 2459.82C2976.85 2470.75 2985.05 2484.92 2992.91 2496.02C3007.76 2517.19 3028.76 2517.36 3028.76 2517.36Z" fill="url(#paint31_linear_7_14958)"/>
<path d="M3001.1 2407.74L3032.69 2434.38L3042.59 2461.02L3014.42 2492.26C3014.42 2492.26 3005.03 2439.5 2998.03 2428.06C2991.03 2416.62 2994.61 2410.99 3001.1 2407.74Z" fill="url(#paint32_linear_7_14958)"/>
<path d="M3867.66 2999.73L3936.81 2825.05C3936.81 2825.05 4105.34 2939.46 4133 3084.76C4101.24 3087.16 4043.19 3095.35 3986.5 3124.04C3974.03 3055.4 3867.66 2999.73 3867.66 2999.73Z" fill="url(#paint33_linear_7_14958)"/>
<path d="M3720.3 3163.99C3720.3 3163.99 3909.49 3270.88 3973.35 3179.53C3986.67 3160.58 3989.74 3141.8 3986.5 3123.7C4043.19 3095.01 4101.07 3086.81 4133 3084.42C4141.37 3128.14 4136.93 3174.75 4111.15 3221.71C3999.31 3426.27 3695.2 3210.44 3695.2 3210.44L3720.3 3163.99Z" fill="url(#paint34_linear_7_14958)"/>
<path d="M3743.01 3299.4L3639.71 2938.77C3638.51 2934.67 3635.1 2931.77 3630.83 2931.26C3612.04 2929.04 3557.92 2922.89 3495.42 2917.6C3420.12 2911.28 3332.53 2905.99 3280.11 2910.43C3272.59 2911.11 3268.15 2918.97 3271.4 2925.63C3301.11 2985.73 3423.54 3230.58 3484.84 3310.84C3486.88 3313.57 3489.96 3315.11 3493.37 3314.94L3732.94 3312.72C3739.94 3312.72 3745.06 3306.06 3743.01 3299.4Z" fill="url(#paint35_linear_7_14958)"/>
<path d="M3484.66 2886.35L3409.88 2873.89C3405.95 2873.21 3402.7 2876.96 3403.9 2880.89L3411.24 2903.43C3411.93 2905.31 3413.63 2906.84 3415.68 2907.01L3487.74 2916.58C3491.49 2917.09 3494.57 2913.67 3493.71 2910.09L3489.1 2890.45C3488.59 2888.23 3486.88 2886.69 3484.66 2886.35Z" fill="#7D97F4"/>
<path d="M3540.84 2949.7L3534.69 2917.6C3534.01 2914.36 3531.45 2911.97 3528.21 2911.63L3377.09 2896.26C3371.97 2895.75 3367.87 2900.36 3369.07 2905.31L3378.63 2945.26C3379.48 2948.51 3382.21 2950.73 3385.46 2950.9L3533.16 2958.41C3537.94 2958.75 3541.7 2954.48 3540.84 2949.7Z" fill="#7D97F4"/>
<path d="M3718.08 3212.14C3718.08 3212.14 3732.42 3153.06 3726.62 3132.06C3720.81 3111.06 3709.54 3084.08 3672.15 3090.06C3634.75 3096.03 3590.53 3111.91 3590.53 3111.91C3590.53 3111.91 3592.75 3139.23 3621.26 3130.35L3603.68 3144.01C3603.68 3144.01 3606.24 3165.87 3630.31 3154.26L3613.92 3172.36C3613.92 3172.36 3624.17 3190.29 3641.93 3178.85C3659.51 3167.24 3667.88 3219.32 3718.08 3212.14Z" fill="url(#paint36_linear_7_14958)"/>
<path d="M3740.11 2631.25L3797.48 2797.22C3798.5 2799.95 3797.31 2803.03 3794.75 2804.39C3779.04 2813.1 3722.69 2838.03 3654.73 2795C3647.73 2790.56 3642.78 2783.22 3641.76 2774.85L3623.14 2631.25H3740.11V2631.25Z" fill="url(#paint37_linear_7_14958)"/>
<path d="M3615.12 2477.58C3615.12 2477.58 3552.11 2596.25 3560.14 2644.06C3568.16 2692.04 3646.37 2688.63 3714.49 2649.69L3762.13 2521.63L3615.12 2477.58Z" fill="url(#paint38_linear_7_14958)"/>
<path d="M3711.59 2586.69C3708.86 2585.49 3707.84 2582.08 3709.37 2579.52C3714.49 2571.83 3723.89 2556.12 3726.96 2542.29C3726.96 2542.29 3738.23 2535.12 3698.1 2525.39C3657.98 2515.83 3598.04 2500.8 3585.41 2466.65C3573.11 2433.35 3605.39 2349.52 3656.78 2416.28C3658.66 2418.84 3662.59 2418.84 3664.46 2416.28C3672.83 2405.35 3695.03 2382.47 3725.93 2396.3C3754.79 2409.28 3758.04 2430.28 3757.52 2441.04C3757.35 2444.11 3760.26 2446.67 3763.33 2445.99C3777.84 2443.26 3812.85 2440.87 3829.24 2476.73C3842.73 2506.26 3834.02 2523 3825.99 2531.19C3823.43 2533.93 3824.63 2538.2 3828.04 2539.22C3837.61 2542.12 3849.9 2550.32 3848.7 2572.69C3847 2603.76 3812.33 2601.03 3802.43 2599.49C3800.89 2599.32 3799.19 2599.84 3798.16 2601.03C3789.62 2610.42 3751.55 2650.21 3710.23 2654.99C3706.64 2655.33 3703.91 2651.91 3705.1 2648.5L3723.03 2596.59C3723.89 2594.2 3722.69 2591.47 3720.3 2590.44L3711.59 2586.69Z" fill="url(#paint39_linear_7_14958)"/>
<path d="M3704.42 2594.03C3704.42 2594.03 3749.33 2563.29 3752.57 2589.25C3755.82 2615.2 3712.1 2626.81 3690.59 2617.08L3704.42 2594.03Z" fill="url(#paint40_linear_7_14958)"/>
<path d="M59.0811 4354.63H1465.38V3947.05H59.0811C89.1331 3947.05 89.1331 4354.63 59.0811 4354.63Z" fill="#91B3FA"/>
<path d="M1465.38 4252.7V4066.24C1465.38 4000.5 1437.55 3947.22 1403.22 3947.22H64.8863C37.9078 3947.22 16.0518 3915.64 16.0518 3876.53C16.0518 3864.75 22.711 3855.02 30.907 3855.02H1493.55C1527.02 3855.02 1580.29 3931.34 1580.29 4025.6V4286.16C1580.29 4374.95 1528.56 4447.01 1496.97 4447.01H38.5908C26.126 4447.01 16.0518 4432.32 16.0518 4414.4C16.0518 4381.44 34.4928 4354.8 57.2025 4354.8H1412.1C1441.47 4354.63 1465.38 4309.04 1465.38 4252.7Z" fill="url(#paint41_linear_7_14958)"/>
<path d="M1426.27 4035.16H107.743C105.182 4035.16 103.304 4033.11 103.304 4030.72C103.304 4028.16 105.353 4026.28 107.743 4026.28H1426.45C1429.01 4026.28 1430.88 4028.33 1430.88 4030.72C1430.88 4033.28 1428.84 4035.16 1426.27 4035.16Z" fill="white"/>
<path d="M1426.27 4095.78H107.743C105.182 4095.78 103.304 4093.73 103.304 4091.34C103.304 4088.95 105.353 4086.9 107.743 4086.9H1426.45C1429.01 4086.9 1430.88 4088.95 1430.88 4091.34C1430.88 4093.73 1428.84 4095.78 1426.27 4095.78Z" fill="white"/>
<path d="M1426.27 4156.22H107.743C105.182 4156.22 103.304 4154.17 103.304 4151.78C103.304 4149.22 105.353 4147.34 107.743 4147.34H1426.45C1429.01 4147.34 1430.88 4149.39 1430.88 4151.78C1430.88 4154.17 1428.84 4156.22 1426.27 4156.22Z" fill="white"/>
<path d="M1426.27 4216.67H107.743C105.182 4216.67 103.304 4214.62 103.304 4212.23C103.304 4209.67 105.353 4207.79 107.743 4207.79H1426.45C1429.01 4207.79 1430.88 4209.84 1430.88 4212.23C1430.88 4214.62 1428.84 4216.67 1426.27 4216.67Z" fill="white"/>
<path d="M1426.27 4277.28H107.743C105.182 4277.28 103.304 4275.23 103.304 4272.84C103.304 4270.28 105.353 4268.4 107.743 4268.4H1426.45C1429.01 4268.4 1430.88 4270.45 1430.88 4272.84C1430.88 4275.23 1428.84 4277.28 1426.27 4277.28Z" fill="white"/>
<path d="M1650.81 3420.97H122.427C111.158 3420.97 101.938 3411.75 101.938 3400.48V3122.84C101.938 3111.57 111.158 3102.35 122.427 3102.35H1650.81C1662.08 3102.35 1671.3 3111.57 1671.3 3122.84V3400.48C1671.13 3411.75 1662.08 3420.97 1650.81 3420.97Z" fill="url(#paint42_linear_7_14958)"/>
<path d="M421.753 3384.26H321.352C298.13 3384.26 279.348 3365.48 279.348 3342.26V3180.9C279.348 3157.68 298.13 3138.89 321.352 3138.89H421.753C444.975 3138.89 463.758 3157.68 463.758 3180.9V3342.26C463.758 3365.48 444.804 3384.26 421.753 3384.26Z" fill="#7D97F4"/>
<path d="M1581.32 3859.8H25.271C11.2695 3859.8 0 3848.53 0 3834.53V3444.36C0 3430.36 11.2695 3419.09 25.271 3419.09H1581.32C1595.32 3419.09 1606.59 3430.36 1606.59 3444.36V3834.53C1606.59 3848.36 1595.32 3859.8 1581.32 3859.8Z" fill="url(#paint43_linear_7_14958)"/>
<path d="M1730.72 3591.72C1730.04 3591.38 1358.32 2940.31 1307.95 2879.01C1299.41 2868.77 1286.43 2863.48 1273.11 2865.01L1169.3 2877.31L1047.38 3141.12L1250.4 3022.79C1230.25 3161.78 1491.16 3368.38 1580.63 3443.68C1589.68 3451.37 1590.54 3465.03 1582.34 3473.57L1546.65 3510.96C1605.22 3570.38 1673.01 3608.63 1749.33 3626.22L1730.72 3591.72Z" fill="url(#paint44_linear_7_14958)"/>
<path d="M1567.49 3490.98C1567.49 3490.98 1544.61 3498.32 1536.92 3518.64C1533.17 3528.38 1537.26 3539.3 1545.63 3545.45C1583.2 3572.43 1706.99 3659.17 1764.19 3676.25C1768.8 3677.61 1773.41 3673.34 1772.22 3668.56C1769.31 3655.24 1759.75 3628.78 1729.19 3590.02L1731.92 3595.48C1735.33 3602.48 1727.82 3609.82 1720.99 3605.9C1682.91 3584.38 1605.05 3537.08 1567.49 3490.98Z" fill="url(#paint45_linear_7_14958)"/>
<path d="M1585.93 3751.55C1585.24 3751.2 1529.58 3616.82 1528.9 3616.31C1477.67 3304.86 1353.02 3038.32 1316.14 2968.15C1310 2956.36 1298.21 2948.51 1284.9 2947.48L1180.74 2938.61L1007.94 3172.19L1230.77 3097.4C1182.96 3229.39 1396.74 3484.49 1468.96 3576.53C1476.31 3585.92 1474.26 3599.41 1464.52 3606.24L1422.01 3635.61C1467.43 3705.61 1525.99 3756.84 1597.2 3789.45L1585.93 3751.55Z" fill="url(#paint46_linear_7_14958)"/>
<path d="M1446.42 3619.73C1446.42 3619.73 1422.69 3622.29 1410.91 3640.73C1405.27 3649.44 1406.98 3661.05 1413.98 3668.73C1445.23 3702.71 1549.05 3812.85 1601.47 3841.02C1605.73 3843.41 1611.03 3840.17 1610.86 3835.21C1610.69 3821.55 1606.76 3793.72 1584.73 3749.5L1586.27 3755.47C1588.32 3762.99 1579.27 3768.62 1573.46 3763.5C1540.51 3734.64 1473.92 3672.66 1446.42 3619.73Z" fill="url(#paint47_linear_7_14958)"/>
<path d="M693.417 2889.26C693.417 2889.26 599.163 3029.44 591.479 3093.3C583.795 3157.16 617.604 3179.36 716.127 3187.39C1009.48 3211.63 1154.1 3123.7 1154.1 3123.7C1174.25 2995.81 1188.42 2963.19 1356.1 2893.53C1356.1 2893.53 1144.03 2910.43 1101.34 2893.87C1058.82 2877.31 693.417 2889.26 693.417 2889.26Z" fill="url(#paint48_linear_7_14958)"/>
<path d="M990.522 2896.94L1031.5 2824.71L1411.25 2841.96C1418.93 2842.3 1422.69 2851.52 1417.4 2857.16L1342.44 2903.26L990.522 2896.94Z" fill="url(#paint49_linear_7_14958)"/>
<path d="M996.498 2874.91L1025.01 2824.71L1404.76 2841.96C1412.44 2842.3 1416.2 2851.52 1410.91 2857.16L1342.61 2896.09L996.498 2874.91Z" fill="#91B3FA"/>
<path d="M926.662 2965.24L1271.75 2980.27C1278.92 2980.61 1285.92 2978.05 1291.38 2973.27L1345.17 2901.55L990.352 2892.16L921.71 2951.41C916.417 2956.02 919.49 2964.9 926.662 2965.24Z" fill="url(#paint50_linear_7_14958)"/>
<path opacity="0.45" d="M990.522 2872.35L1007.94 2842.64C1011.35 2835.81 1023.31 2828.3 1030.99 2828.64L1402.88 2847.59C1406.47 2847.76 1407.84 2852.55 1404.93 2854.59L1339.88 2892.33L990.522 2872.35Z" fill="white"/>
<path d="M926.662 2945.61L1271.75 2960.63C1278.92 2960.97 1285.92 2958.41 1291.38 2953.63L1342.44 2895.92L990.522 2872.35L921.881 2931.6C916.417 2936.38 919.49 2945.26 926.662 2945.61Z" fill="#91B3FA"/>
<path opacity="0.45" d="M943.736 2935.36L1276.19 2948.17C1283.19 2948.51 1289.85 2946.29 1295.14 2942.19L1335.44 2896.94L990.522 2872.35L938.955 2923.24C933.833 2927.33 936.735 2935.02 943.736 2935.36Z" fill="white"/>
<path d="M1069.07 2104.32C1069.07 2104.32 1003.5 2026.63 933.662 2121.91C921.026 2139.15 872.533 2124.98 854.775 2161.01C845.555 2179.62 825.748 2190.21 805.258 2186.45C754.374 2177.06 671.219 2176.21 630.068 2256.12C598.65 2317.08 622.897 2352.59 654.315 2372.91C677.366 2387.77 685.562 2418.16 671.56 2441.72C658.242 2464.43 655.681 2495.17 690.172 2532.05C767.351 2614.86 920.343 2479.46 920.343 2479.46L1041.75 2192.6L1069.07 2104.32Z" fill="url(#paint51_linear_7_14958)"/>
<path d="M948.176 2870.65C948.176 2870.65 1057.8 2766.15 1111.93 2696.99C1141.12 2659.6 1150.34 2610.42 1136.85 2564.83C1112.27 2481.85 1068.38 2395.79 1064.46 2382.3C1058.31 2361.81 935.37 2362.67 935.37 2362.67C935.37 2362.67 693.417 2519.76 598.31 2785.78L705.028 2819.08C705.028 2819.08 768.206 2713.05 830.7 2645.6C830.7 2645.6 722.616 2788.35 718.859 2846.74L948.176 2870.65Z" fill="url(#paint52_linear_7_14958)"/>
<path d="M1157.17 2911.97L1074.7 2822.33L979.594 2847.94C979.594 2847.94 868.607 2865.18 805.088 2847.94C741.569 2830.69 741.569 2830.69 741.569 2830.69L597.968 2785.96L575.429 2849.65C569.623 2865.87 575.429 2883.8 589.43 2893.7C601.895 2902.58 616.409 2912.14 625.629 2916.24C644.583 2924.43 1061.04 2918.8 1061.04 2918.8L1157.17 2911.97Z" fill="url(#paint53_linear_7_14958)"/>
<path d="M1019.72 2214.97L937.078 2368.64C942.542 2402.28 1027.06 2403.13 1040.04 2383.16C1041.41 2381.11 1042.09 2378.72 1042.6 2376.33L1092.12 2273.53C1094.17 2263.46 1066.85 2229.82 1057.8 2225.04L1025.01 2207.62C1012.21 2200.79 1064.97 2200.28 1019.72 2214.97Z" fill="url(#paint54_linear_7_14958)"/>
<path d="M1186.88 2178.94C1186.88 2178.94 1196.28 2230.85 1155.47 2296.93C1114.66 2363.01 1074.02 2359.93 1053.36 2336.37C1032.7 2312.81 1007.94 2273.53 1019.21 2207.8C1030.48 2141.89 1172.88 2112.69 1186.88 2178.94Z" fill="url(#paint55_linear_7_14958)"/>
<path d="M1068.55 2214.8C1068.55 2214.8 1134.63 2128.05 1185.35 2203.7L1184.49 2229.82C1184.49 2229.82 1250.4 2226.75 1243.4 2165.96C1236.23 2105.17 1182.44 2063.51 1107.66 2084.34C1033.04 2105.17 989.327 2128.74 980.96 2180.65C972.593 2232.55 1014.94 2224.02 1014.94 2224.02C1014.94 2224.02 1031.16 2188.16 1050.63 2185.77C1070.09 2183.38 1063.09 2211.55 1063.09 2211.55L1068.55 2214.8Z" fill="url(#paint56_linear_7_14958)"/>
<path d="M1053.53 2212.58C1053.53 2212.58 1087.85 2168.18 1056.6 2158.96C1025.35 2149.74 1026.55 2202.5 1028.6 2222.14L1053.53 2212.58Z" fill="url(#paint57_linear_7_14958)"/>
<defs>
<linearGradient id="paint0_linear_7_14958" x1="1420.15" y1="872.807" x2="1769.28" y2="872.807" gradientUnits="userSpaceOnUse">
<stop stop-color="#4F52FF"/>
<stop offset="1" stop-color="#4042E2"/>
</linearGradient>
<linearGradient id="paint1_linear_7_14958" x1="1729.05" y1="902.848" x2="2037.36" y2="902.848" gradientUnits="userSpaceOnUse">
<stop stop-color="#4F52FF"/>
<stop offset="1" stop-color="#4042E2"/>
</linearGradient>
<linearGradient id="paint2_linear_7_14958" x1="3162.08" y1="902.848" x2="3470.4" y2="902.848" gradientUnits="userSpaceOnUse">
<stop stop-color="#4F52FF"/>
<stop offset="1" stop-color="#4042E2"/>
</linearGradient>
<linearGradient id="paint3_linear_7_14958" x1="1103.42" y1="902.848" x2="1411.74" y2="902.848" gradientUnits="userSpaceOnUse">
<stop stop-color="#4F52FF"/>
<stop offset="1" stop-color="#4042E2"/>
</linearGradient>
<linearGradient id="paint4_linear_7_14958" x1="3491.12" y1="883.679" x2="3767.28" y2="883.679" gradientUnits="userSpaceOnUse">
<stop stop-color="#4F52FF"/>
<stop offset="1" stop-color="#4042E2"/>
</linearGradient>
<linearGradient id="paint5_linear_7_14958" x1="2346.15" y1="888.572" x2="2839.24" y2="888.572" gradientUnits="userSpaceOnUse">
<stop stop-color="#4F52FF"/>
<stop offset="1" stop-color="#4042E2"/>
</linearGradient>
<linearGradient id="paint6_linear_7_14958" x1="4118.79" y1="872.805" x2="4467.25" y2="872.805" gradientUnits="userSpaceOnUse">
<stop stop-color="#4F52FF"/>
<stop offset="1" stop-color="#4042E2"/>
</linearGradient>
<linearGradient id="paint7_linear_7_14958" x1="4175.21" y1="3621.09" x2="4509.04" y2="3621.09" gradientUnits="userSpaceOnUse">
<stop stop-color="#4F52FF"/>
<stop offset="1" stop-color="#4042E2"/>
</linearGradient>
<linearGradient id="paint8_linear_7_14958" x1="3561.77" y1="2944.44" x2="3872.96" y2="3513.15" gradientUnits="userSpaceOnUse">
<stop stop-color="#FDF53F"/>
<stop offset="1" stop-color="#D93C65"/>
</linearGradient>
<linearGradient id="paint9_linear_7_14958" x1="3500.04" y1="2978.22" x2="3811.22" y2="3546.93" gradientUnits="userSpaceOnUse">
<stop stop-color="#FDF53F"/>
<stop offset="1" stop-color="#D93C65"/>
</linearGradient>
<linearGradient id="paint10_linear_7_14958" x1="2548.62" y1="3649.81" x2="2843.43" y2="3649.81" gradientUnits="userSpaceOnUse">
<stop stop-color="#4F52FF"/>
<stop offset="1" stop-color="#4042E2"/>
</linearGradient>
<linearGradient id="paint11_linear_7_14958" x1="2264.74" y1="3631.49" x2="2528.81" y2="3631.49" gradientUnits="userSpaceOnUse">
<stop stop-color="#4F52FF"/>
<stop offset="1" stop-color="#4042E2"/>
</linearGradient>
<linearGradient id="paint12_linear_7_14958" x1="3152.12" y1="3636.16" x2="3623.61" y2="3636.16" gradientUnits="userSpaceOnUse">
<stop stop-color="#4F52FF"/>
<stop offset="1" stop-color="#4042E2"/>
</linearGradient>
<linearGradient id="paint13_linear_7_14958" x1="1624.12" y1="3610.29" x2="1957.95" y2="3610.29" gradientUnits="userSpaceOnUse">
<stop stop-color="#4F52FF"/>
<stop offset="1" stop-color="#4042E2"/>
</linearGradient>
<linearGradient id="paint14_linear_7_14958" x1="919.544" y1="3131.28" x2="1097.83" y2="3438.96" gradientUnits="userSpaceOnUse">
<stop stop-color="#FDF53F"/>
<stop offset="1" stop-color="#D93C65"/>
</linearGradient>
<linearGradient id="paint15_linear_7_14958" x1="1367.64" y1="3000.08" x2="1056.46" y2="3643.91" gradientUnits="userSpaceOnUse">
<stop stop-color="#FDF53F"/>
<stop offset="1" stop-color="#D93C65"/>
</linearGradient>
<linearGradient id="paint16_linear_7_14958" x1="1421.7" y1="3026.21" x2="1110.52" y2="3670.03" gradientUnits="userSpaceOnUse">
<stop stop-color="#FDF53F"/>
<stop offset="1" stop-color="#D93C65"/>
</linearGradient>
<linearGradient id="paint17_linear_7_14958" x1="1616.15" y1="2374.68" x2="2109.25" y2="2374.68" gradientUnits="userSpaceOnUse">
<stop stop-color="#4F52FF"/>
<stop offset="1" stop-color="#4042E2"/>
</linearGradient>
<linearGradient id="paint18_linear_7_14958" x1="3761.99" y1="2367.28" x2="4110.45" y2="2367.28" gradientUnits="userSpaceOnUse">
<stop stop-color="#4F52FF"/>
<stop offset="1" stop-color="#4042E2"/>
</linearGradient>
<linearGradient id="paint19_linear_7_14958" x1="4120.05" y1="2311.12" x2="4441.88" y2="2311.12" gradientUnits="userSpaceOnUse">
<stop stop-color="#4F52FF"/>
<stop offset="1" stop-color="#4042E2"/>
</linearGradient>
<linearGradient id="paint20_linear_7_14958" x1="1088.95" y1="2284.62" x2="1603.66" y2="2284.62" gradientUnits="userSpaceOnUse">
<stop stop-color="#4F52FF"/>
<stop offset="1" stop-color="#4042E2"/>
</linearGradient>
<linearGradient id="paint21_linear_7_14958" x1="1882.42" y1="1438.36" x2="2866.88" y2="2744.01" gradientUnits="userSpaceOnUse">
<stop stop-color="#FF928E"/>
<stop offset="1" stop-color="#FE7062"/>
</linearGradient>
<linearGradient id="paint22_linear_7_14958" x1="4033.17" y1="2075.81" x2="3419.76" y2="2177.5" gradientUnits="userSpaceOnUse">
<stop stop-color="#FF928E"/>
<stop offset="1" stop-color="#FE7062"/>
</linearGradient>
<linearGradient id="paint23_linear_7_14958" x1="3404.88" y1="4422.66" x2="4173.68" y2="5258.91" gradientUnits="userSpaceOnUse">
<stop stop-color="#09005D"/>
<stop offset="1" stop-color="#1A0F91"/>
</linearGradient>
<linearGradient id="paint24_linear_7_14958" x1="3654.42" y1="4484.77" x2="3586.13" y2="4484.77" gradientUnits="userSpaceOnUse">
<stop stop-color="#FEBBBA"/>
<stop offset="1" stop-color="#FF928E"/>
</linearGradient>
<linearGradient id="paint25_linear_7_14958" x1="4179.13" y1="3085.53" x2="2520.39" y2="5881.03" gradientUnits="userSpaceOnUse">
<stop stop-color="#09005D"/>
<stop offset="1" stop-color="#1A0F91"/>
</linearGradient>
<linearGradient id="paint26_linear_7_14958" x1="3577.35" y1="4264.1" x2="4346.15" y2="5100.35" gradientUnits="userSpaceOnUse">
<stop stop-color="#09005D"/>
<stop offset="1" stop-color="#1A0F91"/>
</linearGradient>
<linearGradient id="paint27_linear_7_14958" x1="3900.53" y1="4481.27" x2="3841.57" y2="4481.27" gradientUnits="userSpaceOnUse">
<stop stop-color="#FEBBBA"/>
<stop offset="1" stop-color="#FF928E"/>
</linearGradient>
<linearGradient id="paint28_linear_7_14958" x1="4257.9" y1="3132.27" x2="2599.17" y2="5927.76" gradientUnits="userSpaceOnUse">
<stop stop-color="#09005D"/>
<stop offset="1" stop-color="#1A0F91"/>
</linearGradient>
<linearGradient id="paint29_linear_7_14958" x1="-18282.1" y1="-23338.3" x2="-17914.8" y2="-22897.5" gradientUnits="userSpaceOnUse">
<stop stop-color="#FF928E"/>
<stop offset="1" stop-color="#FE7062"/>
</linearGradient>
<linearGradient id="paint30_linear_7_14958" x1="3373.41" y1="2703.19" x2="3024.53" y2="2703.19" gradientUnits="userSpaceOnUse">
<stop stop-color="#FEBBBA"/>
<stop offset="1" stop-color="#FF928E"/>
</linearGradient>
<linearGradient id="paint31_linear_7_14958" x1="3102.25" y1="2644.71" x2="3336.36" y2="3177.36" gradientUnits="userSpaceOnUse">
<stop stop-color="#FEBBBA"/>
<stop offset="1" stop-color="#FF928E"/>
</linearGradient>
<linearGradient id="paint32_linear_7_14958" x1="3026.21" y1="2467.33" x2="2928.53" y2="2317.14" gradientUnits="userSpaceOnUse">
<stop stop-color="#FEBBBA"/>
<stop offset="1" stop-color="#FF928E"/>
</linearGradient>
<linearGradient id="paint33_linear_7_14958" x1="-18091.9" y1="-23496.8" x2="-17724.5" y2="-23056" gradientUnits="userSpaceOnUse">
<stop stop-color="#FF928E"/>
<stop offset="1" stop-color="#FE7062"/>
</linearGradient>
<linearGradient id="paint34_linear_7_14958" x1="4136.82" y1="3197.37" x2="3695.32" y2="3197.37" gradientUnits="userSpaceOnUse">
<stop stop-color="#FEBBBA"/>
<stop offset="1" stop-color="#FF928E"/>
</linearGradient>
<linearGradient id="paint35_linear_7_14958" x1="3561.74" y1="2883.47" x2="3318.98" y2="3895.01" gradientUnits="userSpaceOnUse">
<stop stop-color="#09005D"/>
<stop offset="1" stop-color="#1A0F91"/>
</linearGradient>
<linearGradient id="paint36_linear_7_14958" x1="3728.1" y1="3151.07" x2="3590.55" y2="3151.07" gradientUnits="userSpaceOnUse">
<stop stop-color="#FEBBBA"/>
<stop offset="1" stop-color="#FF928E"/>
</linearGradient>
<linearGradient id="paint37_linear_7_14958" x1="3797.81" y1="2725.37" x2="3623.25" y2="2725.37" gradientUnits="userSpaceOnUse">
<stop stop-color="#FEBBBA"/>
<stop offset="1" stop-color="#FF928E"/>
</linearGradient>
<linearGradient id="paint38_linear_7_14958" x1="3581.73" y1="2614.32" x2="3773.66" y2="2497.26" gradientUnits="userSpaceOnUse">
<stop stop-color="#FEBBBA"/>
<stop offset="1" stop-color="#FF928E"/>
</linearGradient>
<linearGradient id="paint39_linear_7_14958" x1="3875.25" y1="2373.87" x2="3627.31" y2="2569.7" gradientUnits="userSpaceOnUse">
<stop stop-color="#09005D"/>
<stop offset="1" stop-color="#1A0F91"/>
</linearGradient>
<linearGradient id="paint40_linear_7_14958" x1="3632.15" y1="2657.98" x2="3804.82" y2="2552.65" gradientUnits="userSpaceOnUse">
<stop stop-color="#FEBBBA"/>
<stop offset="1" stop-color="#FF928E"/>
</linearGradient>
<linearGradient id="paint41_linear_7_14958" x1="2250.3" y1="2053.53" x2="1871.38" y2="2590.97" gradientUnits="userSpaceOnUse">
<stop stop-color="#09005D"/>
<stop offset="1" stop-color="#1A0F91"/>
</linearGradient>
<linearGradient id="paint42_linear_7_14958" x1="1498.98" y1="287.147" x2="1122.88" y2="2113.93" gradientUnits="userSpaceOnUse">
<stop stop-color="#09005D"/>
<stop offset="1" stop-color="#1A0F91"/>
</linearGradient>
<linearGradient id="paint43_linear_7_14958" x1="-1470.88" y1="3107.25" x2="600.297" y2="3591.9" gradientUnits="userSpaceOnUse">
<stop stop-color="#4F52FF"/>
<stop offset="1" stop-color="#4042E2"/>
</linearGradient>
<linearGradient id="paint44_linear_7_14958" x1="1819.85" y1="3046.26" x2="1233.7" y2="3380.82" gradientUnits="userSpaceOnUse">
<stop stop-color="#FEBBBA"/>
<stop offset="1" stop-color="#FF928E"/>
</linearGradient>
<linearGradient id="paint45_linear_7_14958" x1="1743.23" y1="3380.78" x2="1479.2" y2="4019.79" gradientUnits="userSpaceOnUse">
<stop stop-color="#09005D"/>
<stop offset="1" stop-color="#1A0F91"/>
</linearGradient>
<linearGradient id="paint46_linear_7_14958" x1="1763.15" y1="3129.69" x2="3768.66" y2="1874.21" gradientUnits="userSpaceOnUse">
<stop stop-color="#FEBBBA"/>
<stop offset="1" stop-color="#FF928E"/>
</linearGradient>
<linearGradient id="paint47_linear_7_14958" x1="1640.83" y1="3547.49" x2="1252.96" y2="4119.78" gradientUnits="userSpaceOnUse">
<stop stop-color="#09005D"/>
<stop offset="1" stop-color="#1A0F91"/>
</linearGradient>
<linearGradient id="paint48_linear_7_14958" x1="-26468.6" y1="43418.7" x2="-25294.2" y2="41687.5" gradientUnits="userSpaceOnUse">
<stop stop-color="#FF928E"/>
<stop offset="1" stop-color="#FE7062"/>
</linearGradient>
<linearGradient id="paint49_linear_7_14958" x1="1547.82" y1="2729.59" x2="1456.96" y2="2763.42" gradientUnits="userSpaceOnUse">
<stop stop-color="#09005D"/>
<stop offset="1" stop-color="#1A0F91"/>
</linearGradient>
<linearGradient id="paint50_linear_7_14958" x1="1129.8" y1="2758.11" x2="1131.25" y2="2860.09" gradientUnits="userSpaceOnUse">
<stop stop-color="#09005D"/>
<stop offset="1" stop-color="#1A0F91"/>
</linearGradient>
<linearGradient id="paint51_linear_7_14958" x1="1169.49" y1="1909.46" x2="914.633" y2="2203.67" gradientUnits="userSpaceOnUse">
<stop stop-color="#09005D"/>
<stop offset="1" stop-color="#1A0F91"/>
</linearGradient>
<linearGradient id="paint52_linear_7_14958" x1="2406.97" y1="1806.51" x2="1749.66" y2="2169.96" gradientUnits="userSpaceOnUse">
<stop stop-color="#FF928E"/>
<stop offset="1" stop-color="#FE7062"/>
</linearGradient>
<linearGradient id="paint53_linear_7_14958" x1="793.231" y1="2853.41" x2="209.339" y2="2853.41" gradientUnits="userSpaceOnUse">
<stop stop-color="#FEBBBA"/>
<stop offset="1" stop-color="#FF928E"/>
</linearGradient>
<linearGradient id="paint54_linear_7_14958" x1="1030.88" y1="2574.34" x2="1017.38" y2="2364.02" gradientUnits="userSpaceOnUse">
<stop stop-color="#FEBBBA"/>
<stop offset="1" stop-color="#FF928E"/>
</linearGradient>
<linearGradient id="paint55_linear_7_14958" x1="1011.01" y1="2396.39" x2="1265.08" y2="1910.15" gradientUnits="userSpaceOnUse">
<stop stop-color="#FEBBBA"/>
<stop offset="1" stop-color="#FF928E"/>
</linearGradient>
<linearGradient id="paint56_linear_7_14958" x1="1328.46" y1="2120.63" x2="972.681" y2="2192.01" gradientUnits="userSpaceOnUse">
<stop stop-color="#09005D"/>
<stop offset="1" stop-color="#1A0F91"/>
</linearGradient>
<linearGradient id="paint57_linear_7_14958" x1="952.85" y1="2365.99" x2="1206.92" y2="1879.76" gradientUnits="userSpaceOnUse">
<stop stop-color="#FEBBBA"/>
<stop offset="1" stop-color="#FF928E"/>
</linearGradient>
</defs>
</svg>
