<svg width="142" height="142" viewBox="0 0 142 142" fill="none" xmlns="http://www.w3.org/2000/svg">
<path d="M44.6057 100.642C44.8696 100.798 45.1334 101.098 45.3733 101.541C45.6132 101.985 45.8411 102.501 46.0449 103.053C46.2488 103.616 46.4887 104.324 46.7645 105.175C47.1363 106.303 47.4242 107.118 47.652 107.646C47.8799 108.174 48.0958 108.438 48.3237 108.438H52.5213V106.83L51.8377 106.567C51.6338 106.507 51.4419 106.303 51.25 105.955C51.0581 105.607 50.8063 105.055 50.4944 104.312C50.1826 103.568 49.9068 102.933 49.6429 102.405C49.3911 101.877 49.0792 101.397 48.7194 100.942C48.3596 100.486 47.9759 100.162 47.5441 99.9583C48.2397 99.7184 48.8154 99.3347 49.2951 98.807C49.7749 98.2792 50.1227 97.6796 50.3625 97.008C50.5904 96.3363 50.7103 95.6527 50.7103 94.9571C50.7103 93.8177 50.5064 92.8943 50.0987 92.1986C49.6909 91.503 49.0193 90.9873 48.1078 90.6515C47.1843 90.3157 45.949 90.1478 44.4019 90.1478C43.9581 90.1478 43.5383 90.1478 43.1426 90.1478C42.7348 90.1478 42.4949 90.1478 42.411 90.1478C41.6674 90.1478 41.1037 90.1478 40.7199 90.1478H37.3618V91.9468L38.9689 92.2826V106.519L37.2898 106.818V108.426H44.5818V106.818L42.6149 106.531V100.618C42.8307 100.642 43.5024 100.642 44.6057 100.642ZM42.6029 91.8748C42.9387 91.7789 43.4064 91.7309 44.0061 91.7309C45.0135 91.7309 45.7451 92.0068 46.1889 92.5704C46.6326 93.1341 46.8485 93.9737 46.8485 95.101C46.8485 96.4203 46.6326 97.3917 46.1889 98.0394C45.7571 98.687 45.1334 99.0108 44.3299 99.0108H43.5144C43.0226 99.0108 42.7228 98.9988 42.6029 98.9629V91.8748V91.8748Z" fill="white"/>
<path d="M62.7996 108.45H69.6237V106.842L68.3764 106.543L63.3632 90.1718H59.5614L54.5722 106.531L53.2769 106.842L53.3009 108.45H59.1176V106.842L57.4026 106.579L58.1582 103.568H63.5791L64.3587 106.531L62.7996 106.842V108.45ZM58.6139 101.709L60.4729 94.3934L60.8087 92.7263L61.1445 94.3934L63.0994 101.709H58.6139Z" fill="white"/>
<path d="M70.7631 106.746V108.45H74.2771C74.481 108.45 74.7689 108.45 75.1287 108.45C75.4885 108.45 75.7523 108.45 75.9202 108.45C76.9636 108.45 77.6712 108.45 78.0071 108.45C79.6501 108.45 81.0893 108.03 82.3246 107.19C83.5599 106.351 84.5074 105.199 85.167 103.724C85.8267 102.249 86.1625 100.57 86.1625 98.675C86.1625 95.9405 85.4789 93.8417 84.1236 92.3665C82.7684 90.8913 80.7295 90.1598 78.019 90.1598C77.4434 90.1598 76.7957 90.1598 76.0761 90.1598C75.2606 90.1598 74.6249 90.1598 74.1692 90.1598H70.8111V91.9947L72.4182 92.3305V106.447L70.7631 106.746ZM76.0641 91.9827C76.1001 91.9707 76.244 91.9468 76.4959 91.8868C76.7478 91.8268 77.0956 91.8028 77.5393 91.8028C79.1344 91.8028 80.3098 92.4625 81.0653 93.7697C81.8209 95.077 82.1927 96.924 82.1927 99.3106C82.1927 101.817 81.8209 103.688 81.0653 104.923C80.3098 106.159 79.2544 106.77 77.9111 106.77C77.5153 106.77 77.1675 106.758 76.8677 106.722C76.5679 106.698 76.292 106.639 76.0641 106.543V91.9827Z" fill="white"/>
<path d="M91.3076 107.322C92.387 108.078 93.7423 108.45 95.3853 108.45C96.9085 108.45 98.2517 108.054 99.4151 107.274C100.578 106.495 101.478 105.379 102.114 103.952C102.749 102.525 103.073 100.87 103.073 98.9988C103.073 96.1924 102.473 94.0216 101.274 92.4745C100.075 90.9274 98.2277 90.1478 95.7571 90.1478C94.246 90.1478 92.9147 90.5196 91.7753 91.2752C90.624 92.0307 89.7365 93.0981 89.1009 94.4894C88.4652 95.8806 88.1534 97.4997 88.1534 99.3466C88.1534 101.194 88.4172 102.801 88.9329 104.156C89.4367 105.523 90.2402 106.579 91.3076 107.322ZM93.0586 93.6858C93.6583 92.4385 94.5098 91.8149 95.6132 91.8149C96.7286 91.8149 97.5801 92.4025 98.1798 93.5779C98.7674 94.7532 99.0673 96.5642 99.0673 99.0348C99.0673 100.726 98.9234 102.153 98.6475 103.316C98.3717 104.48 97.9759 105.343 97.4602 105.931C96.9445 106.519 96.3208 106.806 95.6012 106.806C94.4978 106.806 93.6583 106.183 93.0586 104.948C92.459 103.7 92.1591 101.841 92.1591 99.3466C92.1591 96.8161 92.459 94.9331 93.0586 93.6858Z" fill="white"/>
<path d="M104.872 106.83V108.438H113.063V106.83L110.209 106.519V102.009C110.305 102.033 110.497 102.045 110.797 102.045C111.097 102.045 111.408 102.045 111.744 102.045C113.111 102.045 114.299 101.781 115.282 101.266C116.266 100.75 117.021 100.006 117.537 99.0228C118.053 98.0513 118.316 96.876 118.316 95.5088C118.316 94.3214 118.125 93.338 117.729 92.5584C117.345 91.7789 116.685 91.1912 115.75 90.7714C114.814 90.3516 113.555 90.1598 111.948 90.1598C111.396 90.1598 110.629 90.1598 109.657 90.1598C109.106 90.1598 108.626 90.1598 108.23 90.1598H104.932V91.9827L106.539 92.3185V106.531L104.872 106.83ZM110.197 91.9348C110.329 91.9108 110.425 91.8868 110.509 91.8628C110.821 91.7669 111.192 91.7309 111.612 91.7309C112.596 91.7309 113.339 92.0427 113.819 92.6544C114.311 93.278 114.551 94.2495 114.551 95.5807C114.551 97.3197 114.287 98.5551 113.759 99.2986C113.231 100.042 112.536 100.402 111.672 100.402C111.025 100.402 110.533 100.366 110.197 100.282V91.9348V91.9348Z" fill="white"/>
<path d="M131.629 40.9873C119.78 28.0106 100.482 14.4462 82.4566 6.43464C78.8226 4.81554 74.9608 4 70.979 4C66.9852 4 63.0994 4.82754 59.4414 6.44663C52.3174 9.61286 44.6537 13.8585 37.3378 18.6318C33.9917 18.7877 31.1013 19.3154 29.3263 19.8191C27.7072 20.2749 28.9785 22.2538 30.1658 22.7815C31.749 23.4771 34.1476 24.5205 36.99 26.6673C38.5851 27.8666 39.9524 29.4977 40.6959 30.4572C41.1277 31.0209 41.0557 32.0043 40.3721 32.508C37.2419 34.8108 33.44 39.1403 29.818 44.5733C24.1452 53.0645 22.5381 58.1377 22.1423 60.7762C21.8425 62.7551 22.3342 62.7911 23.2337 61.208C24.9368 58.1977 26.8917 55.3073 29.0744 52.6088C32.5525 48.2792 39.0409 40.2197 50.4825 35.2425C50.6624 35.1586 50.8902 35.0626 51.1541 34.9427C53.8166 33.7314 60.8686 30.5052 70.3913 30.5052C74.601 30.5052 78.8346 31.1408 82.9843 32.3881C93.2505 35.4824 100.387 40.6755 103.589 47.4037C105.232 50.8578 105.52 54.2279 104.452 57.7179C104.212 58.5095 103.469 59.0372 102.617 59.0372C101.994 59.0372 101.43 58.7494 101.058 58.2576C99.2472 55.823 97.0164 53.8081 94.4379 52.261C91.2956 50.378 88.0574 49.4306 84.7953 49.4306C80.8974 49.4306 77.1076 50.8458 73.8334 53.5203C73.0778 54.1319 72.3222 54.7796 71.5547 55.4392C67.2491 59.1211 62.3678 63.2948 56.1313 63.2948C55.6516 63.2948 55.1718 63.2708 54.6801 63.2228C52.0536 62.959 49.511 61.8316 47.1243 59.8887C46.6566 59.5049 46.4647 58.9053 46.6326 58.3296C46.8125 57.7419 47.3042 57.3341 47.9399 57.2622C50.3265 56.9983 52.6652 55.823 55.0879 53.6642C55.9514 52.8966 56.755 52.0211 57.5345 51.1696C58.6979 49.9103 59.8852 48.591 61.3364 47.5596L61.4563 47.4757C61.7442 47.2718 62.2958 46.888 62.3198 46.6002C62.3318 46.5042 62.2958 46.4083 62.2359 46.3243C62.1519 46.2284 62.02 46.1684 61.8161 46.1684C59.5014 46.5522 57.2347 47.1159 55.0639 47.8475C45.1814 51.1816 39.3287 57.2622 37.1339 59.5529C31.2812 65.6335 27.0716 73.657 25.2846 82.1363C23.2577 91.7549 24.8288 101.362 26.6158 110.368C26.9037 111.832 27.2155 113.307 27.5633 114.758C27.8271 115.861 28.3189 117.313 26.9876 117.972C25.7643 118.572 24.8408 117.409 24.2172 116.509C20.5712 111.208 8.26609 75.456 10.0771 59.6608C11.0725 51.0017 14.6105 42.7623 20.4033 35.9381C22.1903 33.8393 24.1572 31.6805 26.268 29.5217C26.4599 29.3178 26.5559 29.054 26.5199 28.7781C26.4839 28.5143 26.328 28.2744 26.0761 28.1185C25.9322 28.0345 25.7763 27.9866 25.6084 27.9866C25.4165 27.9866 25.2366 28.0465 25.0807 28.1665C18.5323 33.0357 14.0229 36.9456 10.4489 40.8434C4.59615 47.2238 1.94563 56.1348 3.38482 64.674C5.84345 79.3178 9.18957 98.9988 18.8562 117.277C18.5923 117.804 16.9612 119.495 16.7214 119.939C15.9658 121.342 15.3181 122.566 14.7065 124.724C14.0349 127.123 13.3153 129.642 13.6751 132.16C13.879 133.599 14.4306 135.027 15.2342 136.238C15.654 136.874 17.1531 139.008 18.1006 138.565C18.2805 138.481 18.4364 138.313 18.5683 138.013C19.7796 135.219 20.7271 132.304 22.4062 129.738C23.6175 127.879 25.2246 126.092 27.5633 125.876C29.3863 125.708 30.5136 125.492 31.8569 124.161C32.9243 123.093 33.8598 121.906 35.3829 121.498C37.4458 120.947 39.6405 121.078 41.7513 121.21C42.9147 121.282 45.4813 121.462 44.4858 119.663C43.9941 118.776 43.0466 117.972 42.2431 117.385C41.0437 116.509 39.6885 115.789 38.3093 115.238C36.6782 114.59 34.9751 114.314 33.6079 113.115C30.6815 110.536 30.1179 106.075 29.6741 102.501L29.6261 102.117C28.2109 90.9273 31.4011 81.3447 38.849 74.4006C47.1723 66.6289 57.1987 65.3577 61.4803 64.818C62.4997 64.686 76.4 62.7551 74.9608 66.2212C74.2052 68.0442 72.754 69.4833 71.2908 70.7666C69.7197 72.1578 68.0166 73.4052 66.2296 74.5085C65.534 74.9403 65.4621 75.504 66.0497 75.8158C68.0646 76.8712 70.1754 77.4109 72.3582 77.4109C74.2292 77.4109 76.9037 76.6194 79.914 75.1922C83.548 73.4651 86.9181 71.1504 89.9404 68.332C90.3601 67.9362 90.9238 67.7203 91.5115 67.7203C91.7993 67.7203 92.0632 67.7683 92.327 67.8762C95.5173 69.1235 98.5156 70.7786 101.418 72.3737C104.32 73.9808 107.331 75.6359 110.485 76.8592C112.5 77.6388 113.699 77.9386 114.778 77.9386C115.126 77.9386 115.474 77.9026 115.846 77.8307C117.417 77.5308 119.504 75.9237 119.756 74.4006C119.696 73.1893 112.632 67.9842 110.317 66.2691L110.017 66.0533C109.477 65.6575 109.154 65.0578 109.13 64.4102C109.106 63.7626 109.381 63.1509 109.873 62.7191C110.461 62.2154 111.001 61.7237 111.073 61.6397C113.519 59.1091 114.695 56.1828 114.551 52.9446C114.323 47.7875 110.641 41.6229 104.668 36.4538C97.3282 30.0854 92.6509 27.6388 82.9363 25.0842C78.9905 24.0408 74.613 23.5251 69.9236 23.5251C65.8818 23.5251 61.6962 23.9328 57.8463 24.6884C57.8104 24.7004 57.7744 24.7004 57.7384 24.7004C57.6664 24.7004 57.5825 24.6884 57.5105 24.6524C56.4071 24.1367 55.3997 23.645 54.4522 23.1893C51.4899 21.7501 49.3311 20.3948 46.7406 19.5433C48.7314 18.368 50.7343 17.2406 52.7372 16.1972C58.3501 13.2468 64.6705 11.6877 71.015 11.6877C77.3354 11.6877 83.6319 13.2468 89.2328 16.1852C100.075 21.882 110.737 29.2459 119.264 36.9336C129.29 45.9645 133.944 59.8647 131.401 73.2013C129.074 85.4224 126.256 96.5282 123.006 106.219C117.813 121.678 103.397 132.472 87.122 133.072C81.2333 133.288 75.5724 133.396 70.2834 133.396C65.1742 133.396 60.233 133.288 55.6036 133.096C47.2443 132.736 42.8547 131.944 37.8895 130.877C32.9123 129.93 32.8883 131.129 36.4503 133.216C41.0318 135.866 47.2443 138.241 54.7641 138.589C59.8372 138.829 65.2222 138.948 70.7631 138.948C79.5902 138.948 89.1728 138.649 99.2352 138.037C109.969 137.389 119.576 130.529 123.701 120.563C131.425 101.889 136.079 79.8695 138.621 64.686C140.024 56.0509 137.494 47.4157 131.629 40.9873Z" fill="white"/>
</svg>
