<svg width="325" height="246" viewBox="0 0 325 246" fill="none" xmlns="http://www.w3.org/2000/svg">
<path d="M173.846 197.11C167.346 196.41 159.346 194.51 151.346 191.61C140.946 187.81 122.046 179.01 111.446 162.91L112.146 162.41C130.146 189.81 175.746 199.71 185.146 195.41C188.646 193.81 191.646 191.71 193.946 189.31C193.846 189.31 193.846 189.21 193.746 189.21C186.846 185.11 184.246 179.31 186.746 173.71C188.746 169.31 193.646 166.31 197.046 167.41C199.646 168.31 201.246 170.81 201.346 174.31C201.546 178.81 199.546 184.31 195.346 189.11C210.846 197.81 232.246 200.21 232.546 200.31L232.446 201.21C232.246 201.21 210.446 198.71 194.746 189.81C192.346 192.31 189.246 194.61 185.546 196.31C183.046 197.31 178.946 197.61 173.846 197.11ZM195.946 168.01C193.046 167.71 189.346 170.31 187.646 174.01C186.546 176.51 184.946 182.81 194.246 188.41C194.346 188.51 194.546 188.61 194.646 188.61C198.746 184.01 200.746 178.71 200.546 174.31C200.346 171.21 199.046 168.91 196.846 168.21C196.446 168.11 196.246 168.11 195.946 168.01Z" fill="url(#paint0_linear)"/>
<path fill-rule="evenodd" clip-rule="evenodd" d="M213.246 234.41C207.846 231.51 204.246 230.01 200.046 226.01C200.046 226.01 238.446 232.81 264.346 229.51L322.746 237.01C322.846 236.91 279.346 252.91 213.246 234.41Z" fill="url(#paint1_linear)"/>
<path fill-rule="evenodd" clip-rule="evenodd" d="M213.246 234.41C213.246 234.41 276.646 251.51 322.846 236.91C322.846 236.91 324.646 238.61 324.046 241.61C324.046 241.61 271.046 253.11 212.846 237.01C212.946 237.01 212.746 235.71 213.246 234.41Z" fill="url(#paint2_linear)"/>
<path d="M200.046 226.01C200.046 226.01 199.246 227.71 199.546 229.81L212.846 237.01L213.146 234.31C213.246 234.41 203.946 229.41 200.046 226.01Z" fill="#8E003E"/>
<path opacity="0.45" fill-rule="evenodd" clip-rule="evenodd" d="M229.446 229.609C239.246 234.409 249.846 237.909 261.246 240.409C261.246 240.409 274.446 241.609 280.746 240.109L252.246 230.409C252.346 230.309 233.746 229.809 229.446 229.609Z" fill="#791B36"/>
<path fill-rule="evenodd" clip-rule="evenodd" d="M285.245 219.011C285.245 219.011 284.145 223.011 280.845 225.711C280.845 225.711 275.245 229.511 259.145 223.711C243.545 218.011 228.545 204.411 228.545 204.411L227.045 198.611C227.045 198.611 241.145 196.011 252.345 202.111C263.445 208.311 278.745 219.111 285.245 219.011Z" fill="url(#paint3_linear)"/>
<path fill-rule="evenodd" clip-rule="evenodd" d="M278.545 221.71C265.045 221.01 256.245 205.51 244.345 201.41C235.045 198.11 227.445 198.61 226.845 198.61C233.045 195.61 252.545 191.51 268.345 198.61C277.945 202.91 284.845 211.31 285.245 216.71C285.245 216.91 285.245 217.11 285.245 217.21C285.245 217.31 285.245 217.31 285.245 217.41C285.245 220.21 283.145 222.01 278.545 221.71Z" fill="url(#paint4_linear)"/>
<path d="M240.346 200.211L240.246 200.011C245.946 197.311 253.046 195.511 258.246 195.311V195.511C253.046 195.711 246.046 197.511 240.346 200.211Z" fill="url(#paint5_linear)"/>
<path fill-rule="evenodd" clip-rule="evenodd" d="M240.746 195.711C240.746 195.711 249.046 195.611 255.046 199.211L259.546 198.211C259.546 198.211 252.446 194.811 243.146 195.411L240.746 195.711Z" fill="url(#paint6_linear)"/>
<path fill-rule="evenodd" clip-rule="evenodd" d="M255.145 199.21L257.145 198.71C257.145 198.71 252.645 192.51 243.845 195.61L253.845 198.41L255.145 199.21Z" fill="url(#paint7_linear)"/>
<path fill-rule="evenodd" clip-rule="evenodd" d="M253.845 198.51C253.845 198.51 250.546 193.81 243.146 195.81L253.845 198.51Z" fill="url(#paint8_linear)"/>
<path d="M276.146 223.311C268.546 222.511 261.646 216.611 255.346 211.111C252.046 208.311 248.946 205.611 246.046 203.811C237.846 198.911 227.346 199.511 227.246 199.511V199.311C227.346 199.311 237.846 198.611 246.146 203.611C249.146 205.411 252.246 208.011 255.546 210.911C263.846 218.111 273.346 226.211 283.946 221.911L284.046 222.111C281.246 223.311 278.646 223.611 276.146 223.311Z" fill="#5E3075"/>
<path opacity="0.5" fill-rule="evenodd" clip-rule="evenodd" d="M259.045 223.71L263.745 214.91C263.745 214.91 267.945 218.71 272.745 220.41L268.045 226.21C268.045 226.31 263.445 225.51 259.045 223.71Z" fill="url(#paint9_linear)"/>
<path fill-rule="evenodd" clip-rule="evenodd" d="M278.545 221.711C265.045 221.011 256.245 205.511 244.345 201.411C235.045 198.111 227.445 198.611 226.845 198.611C227.545 198.511 237.045 197.411 247.145 201.611C258.645 206.411 264.745 218.711 275.945 220.811C284.645 222.411 285.145 219.011 285.345 217.511C285.245 220.211 283.145 222.011 278.545 221.711Z" fill="url(#paint10_linear)"/>
<path opacity="0.5" fill-rule="evenodd" clip-rule="evenodd" d="M242.045 200.611L242.145 199.811C242.145 199.811 247.245 200.911 251.945 204.011L251.045 204.911C251.045 204.911 246.645 201.511 242.045 200.611Z" fill="#5656B1"/>
<path fill-rule="evenodd" clip-rule="evenodd" d="M226.946 198.61C226.946 198.61 236.346 198.21 245.446 202.31C255.046 206.61 262.646 216.91 272.046 220.31C272.046 220.31 266.546 218.21 260.046 212.31C253.646 206.31 246.846 198.31 226.946 198.61Z" fill="#DEDDE7"/>
<path fill-rule="evenodd" clip-rule="evenodd" d="M259.345 198.911C259.845 199.111 260.145 199.411 260.045 199.711C259.945 200.011 259.445 200.011 258.945 199.911C258.445 199.711 258.145 199.411 258.245 199.111C258.345 198.811 258.845 198.711 259.345 198.911Z" fill="white"/>
<path fill-rule="evenodd" clip-rule="evenodd" d="M262.146 200.211C261.946 201.011 260.445 201.311 258.845 200.911C257.245 200.511 256.045 199.411 256.345 198.611C256.545 197.811 258.046 197.511 259.646 197.911C261.246 198.411 262.346 199.411 262.146 200.211Z" fill="url(#paint11_radial)"/>
<path fill-rule="evenodd" clip-rule="evenodd" d="M41.2454 1.00977C41.2454 1.00977 38.2454 2.10977 35.1454 5.40977C35.1454 5.40977 31.6454 13.5098 42.5454 28.7098C53.4454 43.9098 62.8454 43.0098 62.8454 43.0098C62.8454 43.0098 67.3454 41.0098 69.5454 37.4098L41.2454 1.00977Z" fill="url(#paint12_linear)"/>
<path fill-rule="evenodd" clip-rule="evenodd" d="M46.2455 26.009C38.7455 15.609 36.5455 4.40896 41.2455 1.00896C45.9455 -2.39104 55.8455 3.30896 63.3455 13.709C70.8455 24.109 73.0455 35.309 68.3455 38.709C63.5455 42.109 53.6455 36.409 46.2455 26.009Z" fill="url(#paint13_linear)"/>
<path fill-rule="evenodd" clip-rule="evenodd" d="M59.9454 38.4099L52.1454 2.70989C52.1454 2.70989 47.4454 -0.190111 45.0454 0.0098889L53.0454 33.7099C53.0454 33.7099 56.8454 37.3099 59.9454 38.4099Z" fill="#FBF9FA"/>
<path fill-rule="evenodd" clip-rule="evenodd" d="M47.4455 25.2096C40.9455 16.2096 38.8455 6.50964 42.3455 3.00964C42.5455 2.80964 42.7455 2.70964 42.9455 2.50964C47.2455 -0.590359 56.2455 4.60964 63.0455 14.1096C69.8455 23.6096 71.8455 33.7096 67.5455 36.8096C67.3455 36.9096 67.1455 37.1096 66.9455 37.2096C62.3455 39.3096 53.9455 34.2096 47.4455 25.2096Z" fill="url(#paint14_linear)"/>
<path fill-rule="evenodd" clip-rule="evenodd" d="M47.4455 25.2092C40.9455 16.2092 38.8455 6.50917 42.3455 3.00917C46.8455 0.809171 55.3455 5.90917 61.7455 15.0092C68.1455 24.1092 70.3455 33.7092 66.8455 37.2092C62.3455 39.3092 53.9455 34.2092 47.4455 25.2092Z" fill="url(#paint15_linear)"/>
<path d="M49.9454 12.8102C50.2454 12.6102 50.1454 12.7102 50.5454 12.6102C50.9454 12.5102 54.6454 14.4102 55.1454 14.3102L53.8454 15.3102C53.5454 15.2102 53.2454 15.2102 52.9454 15.2102C52.6454 15.2102 52.4454 15.3102 52.2454 15.3102C52.0454 15.4102 51.7454 15.4102 51.5454 15.5102C51.3454 15.7102 51.2454 16.0102 51.2454 16.4102C51.2454 16.8102 51.4454 17.2102 51.7454 17.6102C52.0454 18.0102 52.3454 18.3102 52.6454 18.5102C52.9454 18.7102 53.3454 18.8102 53.7454 19.0102C54.1454 19.1102 54.5454 19.2102 54.9454 19.3102C55.3454 19.4102 55.7454 19.5102 56.2454 19.7102C56.6454 19.9102 57.1454 20.1102 57.5454 20.4102C57.9454 20.7102 58.4454 21.2102 58.8454 21.7102C59.2454 22.3102 59.5454 22.8102 59.7454 23.3102C59.9454 23.8102 60.0454 24.3102 60.0454 24.7102C60.0454 25.1102 59.9454 25.5102 59.8454 25.9102C59.7454 26.3102 60.8454 25.6102 60.6454 25.9102L64.3454 30.9102L61.9454 32.6102L58.5454 27.6102C58.5454 27.6102 58.4454 27.7102 58.2454 27.8102C58.1454 27.9102 57.9454 28.0102 57.7454 28.0102C57.5454 28.1102 57.2454 28.1102 57.0454 28.2102C56.7454 28.2102 56.4454 28.2102 56.1454 28.1102L54.2454 25.3102C54.6454 25.4102 55.0454 25.4102 55.3454 25.4102C55.6454 25.4102 55.9454 25.3102 56.2454 25.2102C56.5454 25.1102 56.7454 25.0102 57.0454 24.9102C57.2454 24.3102 57.1454 23.8102 56.7454 23.2102C56.5454 22.9102 56.2454 22.7102 55.9454 22.5102C55.6454 22.3102 55.2454 22.2102 54.8454 22.0102C54.4454 21.9102 54.0454 21.7102 53.5454 21.6102C53.0454 21.5102 52.6454 21.3102 52.1454 21.0102C51.6454 20.8102 51.2454 20.5102 50.7454 20.1102C50.2454 19.7102 49.8454 19.3102 49.4454 18.7102C48.7454 17.7102 48.3454 16.8102 48.3454 15.9102C48.2454 15.0102 48.4454 14.3102 48.8454 13.7102L45.2454 8.91016L46.5454 7.91016L49.9454 12.8102Z" fill="url(#paint16_linear)"/>
<path d="M50.8454 12.0098C51.1454 11.8098 51.5454 11.7098 51.9454 11.6098C52.3454 11.5098 52.8454 11.4098 53.3454 11.3098L55.1454 14.2098C54.8454 14.1098 54.5454 14.1098 54.2454 14.1098C53.9454 14.1098 53.7454 14.2098 53.5454 14.2098C53.3454 14.3098 53.0454 14.3098 52.8454 14.4098C52.6454 14.6098 52.5454 14.9098 52.5454 15.3098C52.5454 15.7098 52.7454 16.1098 53.0454 16.5098C53.3454 16.9098 53.6454 17.2098 53.9454 17.4098C54.2454 17.6098 54.6454 17.7098 55.0454 17.9098C55.4454 18.0098 55.8454 18.1098 56.2454 18.2098C56.6454 18.3098 57.0454 18.4098 57.5454 18.6098C57.9454 18.8098 58.4454 19.0098 58.8454 19.3098C59.2454 19.6098 59.7454 20.1098 60.1454 20.6098C60.5454 21.2098 60.8454 21.7098 61.0454 22.2098C61.2454 22.7098 61.3454 23.2098 61.3454 23.6098C61.3454 24.0098 61.2454 24.4098 61.1454 24.8098C61.0454 25.2098 60.8454 25.5098 60.6454 25.7098L64.3454 30.7098L63.2454 31.4098L59.8454 26.4098C59.8454 26.4098 59.7454 26.5098 59.5454 26.6098C59.4454 26.7098 59.2454 26.8098 59.0454 26.8098C58.8454 26.9098 58.5454 26.9098 58.3454 27.0098C58.0454 27.0098 57.7454 27.0098 57.4454 26.9098L55.5454 24.1098C55.9454 24.2098 56.3454 24.2098 56.6454 24.2098C56.9454 24.2098 57.2454 24.1098 57.5454 24.0098C57.8454 23.9098 58.0454 23.8098 58.3454 23.7098C58.5454 23.1098 58.4454 22.6098 58.0454 22.0098C57.8454 21.7098 57.5454 21.5098 57.2454 21.3098C56.9454 21.1098 56.5454 21.0098 56.1454 20.8098C55.7454 20.7098 55.3454 20.5098 54.8454 20.4098C54.3454 20.3098 53.9454 20.1098 53.4454 19.8098C52.9454 19.6098 52.5454 19.3098 52.0454 18.9098C51.5454 18.5098 51.1454 18.1098 50.7454 17.5098C50.0454 16.5098 49.6454 15.6098 49.6454 14.7098C49.5454 13.8098 49.7454 13.1098 50.1454 12.5098L46.5454 7.70976L47.6454 7.00977L50.8454 12.0098Z" fill="url(#paint17_linear)"/>
<path d="M55.4455 24.4102L54.1455 25.3102L55.9455 28.2102L57.3455 27.2102L55.4455 24.4102Z" fill="#D03B48"/>
<path d="M48.6454 13.8098L49.9454 12.8098L46.4454 8.00977L45.0454 8.90977L48.6454 13.8098Z" fill="#D03B48"/>
<path d="M58.3455 27.709L59.6455 26.709L63.1455 31.809L61.7455 32.709L58.3455 27.709Z" fill="#D03B48"/>
<path d="M59.9455 38.409L56.1455 41.109C56.1455 41.109 52.5455 39.609 49.3455 36.409L53.0455 33.709C53.0455 33.709 56.7455 37.309 59.9455 38.409Z" fill="#FBE569"/>
<path d="M39.0454 4.60938L34.6454 7.70937C34.6454 7.70937 34.4454 9.60937 34.7454 11.2094L38.8454 9.00938C38.8454 9.00938 38.4454 6.30938 39.0454 4.60938Z" fill="#FBE569"/>
<path fill-rule="evenodd" clip-rule="evenodd" d="M70.6453 30.8105C70.6453 30.8105 68.6453 34.6105 69.9453 36.6105C70.0453 36.6105 71.2453 34.1105 70.6453 30.8105Z" fill="#FBF9B8"/>
<path fill-rule="evenodd" clip-rule="evenodd" d="M92.2455 10.709C92.2455 10.709 89.8455 11.009 87.0455 12.909C87.0455 12.909 83.1455 18.209 88.4455 31.209C93.7455 44.209 100.845 45.209 100.845 45.209C100.845 45.209 104.545 44.509 106.745 42.309L92.2455 10.709Z" fill="url(#paint18_linear)"/>
<path fill-rule="evenodd" clip-rule="evenodd" d="M91.5455 29.91C87.8455 21.01 88.1455 12.41 92.2455 10.71C96.2455 9.00995 102.546 14.91 106.246 23.81C109.946 32.71 109.646 41.31 105.546 43.01C101.446 44.71 95.2455 38.81 91.5455 29.91Z" fill="url(#paint19_linear)"/>
<path fill-rule="evenodd" clip-rule="evenodd" d="M99.4455 41.409L99.8455 13.909C99.8455 13.909 96.9455 10.909 95.1455 10.709L95.2455 36.809C95.2455 36.709 97.3455 40.009 99.4455 41.409Z" fill="#FBF9FA"/>
<path fill-rule="evenodd" clip-rule="evenodd" d="M92.6455 29.5097C89.4455 21.8097 89.5455 14.3097 92.7455 12.3097C92.9455 12.2097 93.0455 12.1097 93.2455 12.0097C96.9455 10.5097 102.646 15.8097 105.946 23.9097C109.246 32.0097 109.046 39.8097 105.346 41.3097C105.146 41.4097 104.946 41.4097 104.846 41.5097C101.046 42.5097 95.7455 37.2097 92.6455 29.5097Z" fill="url(#paint20_linear)"/>
<path fill-rule="evenodd" clip-rule="evenodd" d="M92.6455 29.5096C89.4455 21.8096 89.5455 14.3096 92.7455 12.3096C96.4455 11.5096 101.746 16.7096 104.946 24.4096C108.146 32.1096 108.046 39.6096 104.846 41.6096C101.046 42.5096 95.7455 37.2096 92.6455 29.5096Z" fill="url(#paint21_linear)"/>
<path d="M96.5455 20.9098C96.8455 20.8098 96.6455 20.8098 97.0455 20.8098C97.3455 20.8098 99.7455 22.8098 100.146 22.8098L98.9455 23.3098C98.7455 23.2098 98.5455 23.1098 98.3455 23.1098C98.1455 23.1098 97.9455 23.1098 97.8455 23.1098C97.6455 23.1098 97.4455 23.1098 97.3455 23.2098C97.1455 23.3098 97.0455 23.5098 96.9455 23.8098C96.8455 24.1098 96.9455 24.4098 97.0455 24.8098C97.1455 25.1098 97.3455 25.4098 97.5455 25.6098C97.7455 25.8098 97.9455 26.0098 98.2455 26.1098C98.5455 26.2098 98.7455 26.4098 99.0455 26.5098C99.3455 26.6098 99.6455 26.8098 99.9455 27.0098C100.245 27.2098 100.545 27.5098 100.745 27.8098C101.045 28.1098 101.245 28.5098 101.445 29.0098C101.645 29.5098 101.745 29.9098 101.745 30.3098C101.745 30.7098 101.745 31.1098 101.745 31.4098C101.645 31.7098 101.545 32.0098 101.445 32.2098C101.245 32.4098 102.246 32.2098 102.046 32.3098L103.945 36.6098L101.846 37.4098L100.245 33.1098C100.245 33.1098 100.146 33.1098 100.046 33.2098C99.9455 33.2098 99.7455 33.3098 99.6455 33.3098C99.4455 33.3098 99.2455 33.3098 99.0455 33.3098C98.8455 33.3098 98.6455 33.2098 98.4455 33.1098L97.5455 30.7098C97.8455 30.8098 98.1455 30.9098 98.3455 30.9098C98.6455 30.9098 98.8455 30.9098 99.0455 30.9098C99.2455 30.9098 99.4455 30.9098 99.6455 30.8098C99.8455 30.4098 99.9455 30.0098 99.7455 29.5098C99.6455 29.3098 99.4455 29.0098 99.2455 28.9098C99.0455 28.7098 98.8455 28.5098 98.5455 28.4098C98.2455 28.2098 97.9455 28.1098 97.6455 27.9098C97.3455 27.7098 97.0455 27.5098 96.7455 27.2098C96.4455 26.9098 96.1455 26.6098 95.8455 26.3098C95.5455 26.0098 95.3455 25.5098 95.1455 25.0098C94.8455 24.2098 94.6455 23.4098 94.7455 22.8098C94.8455 22.1098 95.0455 21.6098 95.4455 21.2098L93.6455 17.0098L94.8455 16.5098L96.5455 20.9098Z" fill="url(#paint22_linear)"/>
<path d="M97.3456 20.4106C97.6456 20.3106 97.9456 20.3105 98.2456 20.3105C98.5456 20.3105 98.9456 20.3106 99.3456 20.4106L100.146 22.9106C99.9456 22.8106 99.7456 22.7105 99.5456 22.7105C99.3456 22.7105 99.1456 22.7105 99.0456 22.7105C98.8456 22.7105 98.6456 22.7105 98.5456 22.8105C98.3456 22.9105 98.2456 23.1106 98.1456 23.4106C98.0456 23.7106 98.1456 24.0106 98.2456 24.4106C98.3456 24.7106 98.5456 25.0105 98.7456 25.2105C98.9456 25.4105 99.1456 25.6105 99.4456 25.7105C99.7456 25.8105 99.9456 26.0105 100.246 26.1105C100.546 26.2105 100.846 26.4105 101.146 26.6105C101.446 26.8105 101.746 27.1106 101.946 27.4106C102.246 27.7106 102.446 28.1105 102.646 28.6105C102.846 29.1105 102.946 29.5106 102.946 29.9106C102.946 30.3106 102.946 30.7106 102.946 31.0106C102.846 31.3106 102.746 31.6105 102.646 31.8105C102.446 32.0105 102.346 32.2106 102.146 32.4106L104.046 36.7105L103.146 37.1105L101.546 32.8105C101.546 32.8105 101.446 32.8106 101.346 32.9106C101.246 32.9106 101.046 33.0106 100.946 33.0106C100.746 33.0106 100.546 33.0106 100.346 33.0106C100.146 33.0106 99.9456 32.9105 99.7456 32.8105L98.8456 30.4106C99.1456 30.5106 99.4456 30.6105 99.6456 30.6105C99.9456 30.6105 100.146 30.6105 100.346 30.6105C100.546 30.6105 100.746 30.6106 100.946 30.5106C101.146 30.1106 101.246 29.7105 101.046 29.2105C100.946 29.0105 100.746 28.7105 100.546 28.6105C100.346 28.4105 100.146 28.2105 99.8456 28.1105C99.5456 27.9105 99.2456 27.8105 98.9456 27.6105C98.6456 27.4105 98.3456 27.2106 98.0456 26.9106C97.7456 26.6106 97.4456 26.3106 97.1456 26.0106C96.8456 25.7106 96.6456 25.2105 96.4456 24.7105C96.1456 23.9105 95.9456 23.1106 96.0456 22.5106C96.1456 21.8106 96.3456 21.3106 96.7456 20.9106L94.9456 16.7105L95.8456 16.3105L97.3456 20.4106Z" fill="url(#paint23_linear)"/>
<path d="M98.6456 30.3105L97.4456 30.8105L98.3456 33.2105L99.4456 32.7105L98.6456 30.3105Z" fill="#D03B48"/>
<path d="M95.4455 21.4109L96.5455 20.9109L94.8455 16.7109L93.6455 17.2109L95.4455 21.4109Z" fill="#D03B48"/>
<path d="M100.146 33.2109L101.346 32.7109L102.945 37.0109L101.745 37.5109L100.146 33.2109Z" fill="#D03B48"/>
<path d="M99.4456 41.409L96.1456 42.709C96.1456 42.709 93.7456 41.009 91.9456 38.009L95.1456 36.709C95.2456 36.709 97.3456 40.009 99.4456 41.409Z" fill="#FBE569"/>
<path d="M90.0456 12.9102L86.2456 14.4102C86.2456 14.4102 85.8456 15.7102 85.7456 17.0102L89.1456 16.1102C89.1456 16.2102 89.2456 14.1102 90.0456 12.9102Z" fill="#FBE569"/>
<path fill-rule="evenodd" clip-rule="evenodd" d="M108.645 37.6094C108.645 37.6094 106.545 40.0094 107.145 41.8094C107.145 41.8094 108.545 40.1094 108.645 37.6094Z" fill="#FBF9B8"/>
<path fill-rule="evenodd" clip-rule="evenodd" d="M254.646 65.3105L251.346 144.711L250.146 172.611C250.046 175.611 247.546 178.011 244.546 178.011H50.7456C47.7456 178.011 45.2456 175.611 45.1456 172.611L41.7456 65.3105C41.6456 62.1105 44.1456 59.5105 47.3456 59.5105H249.046C252.246 59.4105 254.846 62.1105 254.646 65.3105Z" fill="url(#paint24_linear)"/>
<path fill-rule="evenodd" clip-rule="evenodd" d="M49.4456 65.6109L51.2456 164.711L244.646 164.611L248.246 65.2109L49.4456 65.6109Z" fill="url(#paint25_radial)"/>
<path fill-rule="evenodd" clip-rule="evenodd" d="M45.1455 172.51V170.11L250.345 168.91L250.146 172.61C250.146 172.61 250.246 177.61 244.546 178.01H50.7455C50.7455 178.01 45.3455 177.71 45.1455 172.51Z" fill="url(#paint26_radial)"/>
<path fill-rule="evenodd" clip-rule="evenodd" d="M233.946 173.411C233.946 174.311 233.146 175.111 232.246 175.111C231.346 175.111 230.546 174.311 230.546 173.411C230.546 172.511 231.346 171.711 232.246 171.711C233.146 171.711 233.946 172.511 233.946 173.411Z" fill="#FFFB00"/>
<path fill-rule="evenodd" clip-rule="evenodd" d="M129.546 178.01L133.846 198.41H159.546L163.746 178.01H129.546Z" fill="url(#paint27_linear)"/>
<path opacity="0.5" fill-rule="evenodd" clip-rule="evenodd" d="M131.046 185.11L161.646 188.21L163.746 178.01H129.546L131.046 185.11Z" fill="#401734"/>
<path d="M177.245 198.41H114.646V202.31H177.245V198.41Z" fill="url(#paint28_radial)"/>
<path fill-rule="evenodd" clip-rule="evenodd" d="M177.245 198.411L159.945 196.311H133.445L114.646 198.411H177.245Z" fill="url(#paint29_radial)"/>
<path fill-rule="evenodd" clip-rule="evenodd" d="M71.6455 84.7109L73.3455 164.511L220.546 164.911L223.646 85.0109L71.6455 84.7109Z" fill="url(#paint30_linear)"/>
<g opacity="0.2">
<path opacity="0.2" d="M211.546 89.2106L213.046 87.8105L217.846 93.5105L217.146 94.2106L211.546 89.2106Z" fill="#401734"/>
<path opacity="0.2" d="M216.846 87.8105L218.246 89.2106L212.546 94.1105L211.846 93.4106L216.846 87.8105Z" fill="#401734"/>
</g>
<path opacity="0.8" fill-rule="evenodd" clip-rule="evenodd" d="M162.446 202.31V198.41H176.146L175.246 202.31H162.446Z" fill="#FBF9FA"/>
<path opacity="0.8" fill-rule="evenodd" clip-rule="evenodd" d="M254.646 65.3105L251.345 144.711L250.345 152.811L246.845 148.311L249.845 64.1105H146.745L142.146 59.5105H249.046C252.246 59.4105 254.846 62.1105 254.646 65.3105Z" fill="#FBF9FA"/>
<path opacity="0.5" fill-rule="evenodd" clip-rule="evenodd" d="M152.946 65.4109L245.446 142.711L248.246 65.2109L152.946 65.4109Z" fill="#FBF9FA"/>
<path opacity="0.8" fill-rule="evenodd" clip-rule="evenodd" d="M43.8455 131.211L49.4455 135.111L50.4455 165.311H99.1455L110.445 177.911H50.7455C50.7455 177.911 46.3455 178.111 45.1455 173.411L43.8455 131.211Z" fill="#FBF9FA"/>
<path opacity="0.5" fill-rule="evenodd" clip-rule="evenodd" d="M50.7456 138.111L90.1456 164.711H51.2456L50.7456 138.111Z" fill="#FBF9FA"/>
<g opacity="0.2">
<path opacity="0.2" d="M165.646 100.41H145.146V101.81H165.646V100.41Z" fill="#5E1765"/>
<path opacity="0.2" d="M176.146 103.01H145.146V104.41H176.146V103.01Z" fill="#5E1765"/>
<path opacity="0.2" d="M165.646 97.8105H145.146V99.2106H165.646V97.8105Z" fill="#5E1765"/>
<path opacity="0.2" d="M157.445 94.9102H145.146V96.3102H157.445V94.9102Z" fill="#5E1765"/>
<path opacity="0.2" d="M153.646 105.609H145.146V107.009H153.646V105.609Z" fill="#5E1765"/>
<path opacity="0.2" d="M175.146 105.609H158.946V107.009H175.146V105.609Z" fill="#5E1765"/>
<path opacity="0.2" d="M157.945 105.609H155.345V107.009H157.945V105.609Z" fill="#5E1765"/>
<path opacity="0.2" d="M169.546 100.311H166.946V101.711H169.546V100.311Z" fill="#5E1765"/>
<path opacity="0.2" d="M165.646 108.01H145.146V109.41H165.646V108.01Z" fill="#5E1765"/>
<path opacity="0.2" d="M176.146 110.711H145.146V112.111H176.146V110.711Z" fill="#5E1765"/>
<path opacity="0.2" d="M153.646 113.311H145.146V114.711H153.646V113.311Z" fill="#5E1765"/>
<path opacity="0.2" d="M157.945 113.311H155.345V114.711H157.945V113.311Z" fill="#5E1765"/>
<path opacity="0.2" d="M171.246 94.9102H158.946V96.3102H171.246V94.9102Z" fill="#5E1765"/>
</g>
<path fill-rule="evenodd" clip-rule="evenodd" d="M77.1455 93.8105L78.0455 138.311H140.346V93.8105H77.1455Z" fill="url(#paint31_linear)"/>
<path fill-rule="evenodd" clip-rule="evenodd" d="M175.246 143.91V156.71H209.346L209.846 143.91H175.246Z" fill="url(#paint32_linear)"/>
<path opacity="0.2" fill-rule="evenodd" clip-rule="evenodd" d="M78.0457 146.91L78.2457 156.91H87.6457V146.91H78.0457Z" fill="#5E1765"/>
<path opacity="0.2" fill-rule="evenodd" clip-rule="evenodd" d="M88.5457 146.91L88.8457 156.91H98.1457V146.91H88.5457Z" fill="#5E1765"/>
<path opacity="0.2" d="M108.745 146.91H99.1455V156.91H108.745V146.91Z" fill="#5E1765"/>
<path opacity="0.2" fill-rule="evenodd" clip-rule="evenodd" d="M109.646 146.91L109.945 156.91H119.245V146.91H109.646Z" fill="#5E1765"/>
<path opacity="0.2" fill-rule="evenodd" clip-rule="evenodd" d="M120.246 146.91L120.446 156.91H129.846V146.91H120.246Z" fill="#5E1765"/>
<path opacity="0.2" d="M140.346 146.91H130.746V156.91H140.346V146.91Z" fill="#5E1765"/>
<path opacity="0.5" fill-rule="evenodd" clip-rule="evenodd" d="M43.0457 105.611L252.846 108.811L254.146 78.3105L43.0457 88.3105V105.611Z" fill="#811734"/>
<path fill-rule="evenodd" clip-rule="evenodd" d="M40.9456 97.7109C34.9456 97.7109 29.6456 94.1109 29.0456 89.7109L27.4456 77.2109H49.6456L50.9456 89.7109C51.4456 94.1109 46.9456 97.7109 40.9456 97.7109Z" fill="url(#paint33_linear)"/>
<path fill-rule="evenodd" clip-rule="evenodd" d="M62.7456 97.7109C56.7456 97.7109 51.5456 94.1109 51.0456 89.7109L49.7456 77.2109H71.9456L72.9456 89.7109C73.3456 94.1109 68.7456 97.7109 62.7456 97.7109Z" fill="url(#paint34_radial)"/>
<path fill-rule="evenodd" clip-rule="evenodd" d="M84.4456 97.7109C78.4456 97.7109 73.2456 94.1109 72.9456 89.7109L71.9456 77.2109H94.1456L94.8456 89.7109C95.1456 94.1109 90.4456 97.7109 84.4456 97.7109Z" fill="url(#paint35_linear)"/>
<path fill-rule="evenodd" clip-rule="evenodd" d="M106.146 97.7109C100.146 97.7109 95.0455 94.1109 94.8455 89.7109L94.1455 77.2109H116.346L116.745 89.7109C116.945 94.1109 112.146 97.7109 106.146 97.7109Z" fill="url(#paint36_radial)"/>
<path fill-rule="evenodd" clip-rule="evenodd" d="M127.946 97.7109C121.946 97.7109 116.946 94.1109 116.846 89.7109L116.446 77.2109H138.646L138.746 89.7109C138.746 94.1109 133.946 97.7109 127.946 97.7109Z" fill="url(#paint37_linear)"/>
<path fill-rule="evenodd" clip-rule="evenodd" d="M149.646 97.7109C143.646 97.7109 138.745 94.1109 138.745 89.7109L138.646 77.2109H160.846L160.646 89.7109C160.546 94.1109 155.646 97.7109 149.646 97.7109Z" fill="url(#paint38_radial)"/>
<path fill-rule="evenodd" clip-rule="evenodd" d="M171.346 97.7109C165.346 97.7109 160.546 94.1109 160.646 89.7109L160.846 77.2109H183.046L182.546 89.7109C182.446 94.1109 177.346 97.7109 171.346 97.7109Z" fill="url(#paint39_linear)"/>
<path fill-rule="evenodd" clip-rule="evenodd" d="M193.146 97.7109C187.146 97.7109 182.446 94.1109 182.646 89.7109L183.146 77.2109H205.346L204.546 89.7109C204.246 94.1109 199.146 97.7109 193.146 97.7109Z" fill="url(#paint40_radial)"/>
<path fill-rule="evenodd" clip-rule="evenodd" d="M214.846 97.7109C208.846 97.7109 204.246 94.1109 204.546 89.7109L205.346 77.2109H227.546L226.446 89.7109C226.046 94.1109 220.846 97.7109 214.846 97.7109Z" fill="url(#paint41_linear)"/>
<path fill-rule="evenodd" clip-rule="evenodd" d="M236.546 97.7109C230.546 97.7109 226.046 94.1109 226.446 89.7109L227.546 77.2109H249.746L248.346 89.7109C247.846 94.1109 242.546 97.7109 236.546 97.7109Z" fill="url(#paint42_radial)"/>
<path fill-rule="evenodd" clip-rule="evenodd" d="M258.346 97.7109C252.346 97.7109 247.846 94.1109 248.346 89.7109L249.746 77.2109H271.946L270.246 89.7109C269.646 94.1109 264.346 97.7109 258.346 97.7109Z" fill="url(#paint43_linear)"/>
<path fill-rule="evenodd" clip-rule="evenodd" d="M49.8456 64.9113L27.4456 77.2113C117.946 80.9113 179.246 81.0113 272.046 77.2113L248.646 64.1113L49.8456 64.9113Z" fill="url(#paint44_linear)"/>
<path opacity="0.5" fill-rule="evenodd" clip-rule="evenodd" d="M58.2454 162.411L68.2454 161.811L74.5454 178.011H55.2454L58.2454 162.411Z" fill="#811734"/>
<path d="M4.64546 184.011C10.0455 184.011 18.6455 178.911 22.9455 173.711C23.1455 173.411 23.1455 173.011 22.8455 172.811C22.5455 172.611 22.1455 172.611 21.9455 172.911C16.9455 179.111 6.24546 184.311 2.64546 182.311C0.845463 181.311 1.24547 178.611 1.94547 176.611C6.04547 164.111 29.8455 160.511 30.0455 160.511C30.3455 160.511 30.6455 160.111 30.5455 159.811C30.4455 159.511 30.1455 159.211 29.8455 159.311C28.8455 159.411 4.94546 163.011 0.645463 176.311C-0.854537 180.911 0.545466 182.811 1.94547 183.611C2.74547 183.811 3.64546 184.011 4.64546 184.011Z" fill="url(#paint45_radial)"/>
<path fill-rule="evenodd" clip-rule="evenodd" d="M60.2454 155.01L46.0454 155.31L8.04541 161.71L16.1454 162.51L60.2454 155.01Z" fill="url(#paint46_linear)"/>
<path fill-rule="evenodd" clip-rule="evenodd" d="M75.8455 217.21L60.2455 155.01L16.1455 162.51L27.1455 228.31L75.8455 217.21Z" fill="url(#paint47_linear)"/>
<path fill-rule="evenodd" clip-rule="evenodd" d="M27.1454 228.309L16.0454 224.709L8.04541 161.709L18.3454 160.609L16.1454 162.509L27.1454 228.309Z" fill="url(#paint48_linear)"/>
<path fill-rule="evenodd" clip-rule="evenodd" d="M16.0454 224.709L23.3454 218.609L27.1454 228.309L16.0454 224.709Z" fill="#FF9F57"/>
<path opacity="0.5" fill-rule="evenodd" clip-rule="evenodd" d="M23.3454 218.609L14.5454 161.009L18.3454 160.609L16.1454 162.509L27.1454 228.309L23.3454 218.609Z" fill="#811734"/>
<path fill-rule="evenodd" clip-rule="evenodd" d="M46.3454 163.509C46.6454 164.909 47.6454 165.909 48.5454 165.709C49.4454 165.509 50.0454 164.209 49.7454 162.809C49.4454 161.409 48.4454 160.409 47.5454 160.609C46.6454 160.809 46.0454 162.109 46.3454 163.509Z" fill="#95295C"/>
<path d="M32.1823 169.453C33.1024 169.266 33.6165 167.974 33.3306 166.566C33.0447 165.159 32.0671 164.17 31.147 164.357C30.2268 164.544 29.7127 165.836 29.9986 167.243C30.2845 168.651 31.2622 169.64 32.1823 169.453Z" fill="#95295C"/>
<path d="M47.3455 163.61C48.8455 162.71 49.8455 161.61 50.9455 160.41C52.0455 159.21 52.9455 157.91 53.7455 156.61C54.5455 155.31 55.3455 153.91 55.9455 152.41C56.5455 151.01 57.2455 149.51 57.6455 147.91C58.1455 146.41 58.2455 144.71 58.1455 143.11C58.0455 141.51 57.5455 139.81 56.6455 138.41C55.7455 137.01 54.3455 135.71 52.7455 135.11C51.1455 134.41 49.2455 134.41 47.5455 134.91C45.8455 135.31 44.3455 136.61 43.4455 138.01C42.5455 139.41 41.9455 141.01 41.4455 142.51C40.5455 145.51 39.9455 148.61 39.1455 151.61C38.3455 154.61 37.4455 157.51 35.9455 160.11C34.5455 162.71 32.5455 165.01 30.0455 166.81C29.7455 167.01 29.6455 167.41 29.8455 167.71C30.0455 168.01 30.4455 168.01 30.7455 167.91C33.4455 166.11 35.6455 163.71 37.3455 161.01C38.9455 158.21 40.0455 155.21 40.8455 152.21C41.7455 149.21 42.2455 146.11 43.2455 143.21C43.7455 141.81 44.2455 140.41 45.0455 139.21C45.4455 138.61 45.8455 138.11 46.4455 137.71C46.6455 137.51 46.9455 137.31 47.2455 137.21C47.5455 137.11 47.8455 136.91 48.1455 136.91C49.4455 136.51 50.8455 136.51 52.1455 137.01C53.4455 137.51 54.5455 138.41 55.2455 139.51C56.0455 140.71 56.5455 142.01 56.6455 143.51C56.7455 143.91 56.7455 144.21 56.7455 144.61C56.7455 145.01 56.7455 145.31 56.7455 145.71L56.6455 146.81C56.5455 147.21 56.4455 147.51 56.4455 147.91C56.3455 148.61 56.0455 149.31 55.8455 150.01C55.5455 150.71 55.2455 151.41 54.9455 152.11C54.2455 153.51 53.6455 154.81 52.8455 156.11C52.0455 157.41 51.1455 158.61 50.1455 159.81C49.1455 160.91 48.0455 162.01 46.8455 162.71H46.7455C46.4455 162.91 46.3455 163.31 46.5455 163.61C46.6455 163.71 47.0455 163.81 47.3455 163.61Z" fill="url(#paint49_linear)"/>
<path d="M65.4456 200.109L62.0456 177.609L24.4456 182.709L30.6456 206.909L65.4456 200.109Z" fill="#FFE557"/>
<defs>
<linearGradient id="paint0_linear" x1="173.425" y1="204.724" x2="170.617" y2="158.82" gradientUnits="userSpaceOnUse">
<stop stop-color="#603082"/>
<stop offset="0.9944" stop-color="#2A0E51"/>
</linearGradient>
<linearGradient id="paint1_linear" x1="199.79" y1="228.291" x2="321.979" y2="243.872" gradientUnits="userSpaceOnUse">
<stop stop-color="#FF6E27"/>
<stop offset="0.998" stop-color="#E03347"/>
</linearGradient>
<linearGradient id="paint2_linear" x1="213.501" y1="231.205" x2="323.642" y2="245.25" gradientUnits="userSpaceOnUse">
<stop stop-color="#C73E27"/>
<stop offset="0.998" stop-color="#A4152C"/>
</linearGradient>
<linearGradient id="paint3_linear" x1="225.818" y1="209.513" x2="285.552" y2="215.65" gradientUnits="userSpaceOnUse">
<stop stop-color="#EBD7E3"/>
<stop offset="0.891" stop-color="#9C87BB"/>
<stop offset="1" stop-color="#B7A8CE"/>
</linearGradient>
<linearGradient id="paint4_linear" x1="226.359" y1="204.234" x2="286.086" y2="210.37" gradientUnits="userSpaceOnUse">
<stop stop-color="#7F36BB"/>
<stop offset="0.9944" stop-color="#2A0E51"/>
</linearGradient>
<linearGradient id="paint5_linear" x1="240.454" y1="197.32" x2="258.099" y2="198.321" gradientUnits="userSpaceOnUse">
<stop offset="0.00558659" stop-color="#2A0E51"/>
<stop offset="1" stop-color="#2F174C"/>
</linearGradient>
<linearGradient id="paint6_linear" x1="240.743" y1="196.188" x2="259.602" y2="198.125" gradientUnits="userSpaceOnUse">
<stop stop-color="#2F174C"/>
<stop offset="0.9944" stop-color="#2A0E51"/>
</linearGradient>
<linearGradient id="paint7_linear" x1="243.727" y1="196.527" x2="257.189" y2="197.29" gradientUnits="userSpaceOnUse">
<stop stop-color="#688EFF"/>
<stop offset="0.9944" stop-color="#4C346C"/>
</linearGradient>
<linearGradient id="paint8_linear" x1="243.054" y1="196.157" x2="253.935" y2="197.275" gradientUnits="userSpaceOnUse">
<stop stop-color="#2F174C"/>
<stop offset="0.9944" stop-color="#2A0E51"/>
</linearGradient>
<linearGradient id="paint9_linear" x1="265.511" y1="226.01" x2="266.617" y2="215.239" gradientUnits="userSpaceOnUse">
<stop/>
<stop offset="1" stop-color="#BDB3B1"/>
</linearGradient>
<linearGradient id="paint10_linear" x1="226.112" y1="207.028" x2="285.799" y2="213.16" gradientUnits="userSpaceOnUse">
<stop stop-color="#9F6BF1"/>
<stop offset="0.9944" stop-color="#000024"/>
</linearGradient>
<radialGradient id="paint11_radial" cx="0" cy="0" r="1" gradientUnits="userSpaceOnUse" gradientTransform="translate(259.17 199.401) rotate(15.4301) scale(3.05223 1.52938)">
<stop stop-color="#FF7E00"/>
<stop offset="0.00876701" stop-color="#FC7C00"/>
<stop offset="0.2283" stop-color="#B15700"/>
<stop offset="0.434" stop-color="#723800"/>
<stop offset="0.6198" stop-color="#412000"/>
<stop offset="0.7819" stop-color="#1D0F00"/>
<stop offset="0.9141" stop-color="#080400"/>
<stop offset="1"/>
</radialGradient>
<linearGradient id="paint12_linear" x1="35.6561" y1="4.52209" x2="63.2293" y2="43.0194" gradientUnits="userSpaceOnUse">
<stop offset="0.0351351" stop-color="#FF8447"/>
<stop offset="0.2614" stop-color="#ED3D47"/>
<stop offset="1" stop-color="#FF8427"/>
</linearGradient>
<linearGradient id="paint13_linear" x1="41.2413" y1="1.01137" x2="68.2731" y2="38.7528" gradientUnits="userSpaceOnUse">
<stop stop-color="#FFA700"/>
<stop offset="1" stop-color="#FFD328"/>
</linearGradient>
<linearGradient id="paint14_linear" x1="42.9457" y1="2.4672" x2="67.5196" y2="36.777" gradientUnits="userSpaceOnUse">
<stop offset="0.0351351" stop-color="#FF8447"/>
<stop offset="0.2614" stop-color="#ED3D47"/>
<stop offset="1" stop-color="#FF8427"/>
</linearGradient>
<linearGradient id="paint15_linear" x1="42.3765" y1="2.95854" x2="66.8707" y2="37.157" gradientUnits="userSpaceOnUse">
<stop stop-color="#FFA700"/>
<stop offset="1" stop-color="#FF9C28"/>
</linearGradient>
<linearGradient id="paint16_linear" x1="63.2313" y1="31.7288" x2="46.1078" y2="8.17693" gradientUnits="userSpaceOnUse">
<stop offset="0.0351351" stop-color="#FF8447"/>
<stop offset="0.2614" stop-color="#ED3D47"/>
<stop offset="1" stop-color="#FF8427"/>
</linearGradient>
<linearGradient id="paint17_linear" x1="63.9981" y1="31.1708" x2="46.8747" y2="7.61901" gradientUnits="userSpaceOnUse">
<stop stop-color="#FFA700"/>
<stop offset="1" stop-color="#FFD328"/>
</linearGradient>
<linearGradient id="paint18_linear" x1="87.5377" y1="12.3452" x2="101.092" y2="45.2967" gradientUnits="userSpaceOnUse">
<stop offset="0.0351351" stop-color="#FF8447"/>
<stop offset="0.2614" stop-color="#ED3D47"/>
<stop offset="1" stop-color="#FF8427"/>
</linearGradient>
<linearGradient id="paint19_linear" x1="92.2341" y1="10.7388" x2="105.522" y2="43.0434" gradientUnits="userSpaceOnUse">
<stop stop-color="#FFA700"/>
<stop offset="1" stop-color="#FFD328"/>
</linearGradient>
<linearGradient id="paint20_linear" x1="93.2313" y1="12.0982" x2="105.311" y2="41.4656" gradientUnits="userSpaceOnUse">
<stop offset="0.0351351" stop-color="#FF8447"/>
<stop offset="0.2614" stop-color="#ED3D47"/>
<stop offset="1" stop-color="#FF8427"/>
</linearGradient>
<linearGradient id="paint21_linear" x1="92.7296" y1="12.3602" x2="104.77" y2="41.6323" gradientUnits="userSpaceOnUse">
<stop stop-color="#FFA700"/>
<stop offset="1" stop-color="#FF9C28"/>
</linearGradient>
<linearGradient id="paint22_linear" x1="103.04" y1="37.0287" x2="94.5609" y2="16.826" gradientUnits="userSpaceOnUse">
<stop offset="0.0351351" stop-color="#FF8447"/>
<stop offset="0.2614" stop-color="#ED3D47"/>
<stop offset="1" stop-color="#FF8427"/>
</linearGradient>
<linearGradient id="paint23_linear" x1="103.698" y1="36.7534" x2="95.2187" y2="16.5506" gradientUnits="userSpaceOnUse">
<stop stop-color="#FFA700"/>
<stop offset="1" stop-color="#FFD328"/>
</linearGradient>
<linearGradient id="paint24_linear" x1="148.198" y1="177.975" x2="148.198" y2="59.4028" gradientUnits="userSpaceOnUse">
<stop offset="0.00558659" stop-color="#2A0E45"/>
<stop offset="1" stop-color="#561F7D"/>
</linearGradient>
<radialGradient id="paint25_radial" cx="0" cy="0" r="1" gradientUnits="userSpaceOnUse" gradientTransform="translate(148.854 114.974) scale(78.5907)">
<stop stop-color="#00FFFF"/>
<stop offset="0.9944" stop-color="#26A9FF"/>
</radialGradient>
<radialGradient id="paint26_radial" cx="0" cy="0" r="1" gradientUnits="userSpaceOnUse" gradientTransform="translate(178.441 173.813) scale(58.1061 77.1067)">
<stop stop-color="#EBD7E3"/>
<stop offset="0.9829" stop-color="#BDAFD2"/>
</radialGradient>
<linearGradient id="paint27_linear" x1="146.621" y1="198.417" x2="146.621" y2="177.973" gradientUnits="userSpaceOnUse">
<stop stop-color="#603082"/>
<stop offset="0.9944" stop-color="#2A0E51"/>
</linearGradient>
<radialGradient id="paint28_radial" cx="0" cy="0" r="1" gradientUnits="userSpaceOnUse" gradientTransform="translate(145.931 200.371) scale(22.1638 22.1639)">
<stop stop-color="#B3819D"/>
<stop offset="1" stop-color="#785CA6"/>
</radialGradient>
<radialGradient id="paint29_radial" cx="0" cy="0" r="1" gradientUnits="userSpaceOnUse" gradientTransform="translate(145.931 197.377) scale(22.133 22.1327)">
<stop stop-color="#EBD7E3"/>
<stop offset="0.9829" stop-color="#BDAFD2"/>
</radialGradient>
<linearGradient id="paint30_linear" x1="147.669" y1="164.875" x2="147.669" y2="84.716" gradientUnits="userSpaceOnUse">
<stop offset="0.0171145" stop-color="#E2DCEB"/>
<stop offset="1" stop-color="white"/>
</linearGradient>
<linearGradient id="paint31_linear" x1="108.766" y1="138.279" x2="108.766" y2="93.8073" gradientUnits="userSpaceOnUse">
<stop stop-color="#CA81B9"/>
<stop offset="1" stop-color="#785CA6"/>
</linearGradient>
<linearGradient id="paint32_linear" x1="192.531" y1="156.754" x2="192.531" y2="143.871" gradientUnits="userSpaceOnUse">
<stop offset="0.00198414" stop-color="#E03347"/>
<stop offset="1" stop-color="#FF6E27"/>
</linearGradient>
<linearGradient id="paint33_linear" x1="39.2446" y1="97.6705" x2="39.2446" y2="77.2298" gradientUnits="userSpaceOnUse">
<stop stop-color="#FF6E27"/>
<stop offset="0.998" stop-color="#E03347"/>
</linearGradient>
<radialGradient id="paint34_radial" cx="0" cy="0" r="1" gradientUnits="userSpaceOnUse" gradientTransform="translate(61.3198 96.0787) scale(16.6212 15.0886)">
<stop stop-color="#FFD1A9"/>
<stop offset="0.9944" stop-color="#F99B98"/>
</radialGradient>
<linearGradient id="paint35_linear" x1="83.3987" y1="97.6705" x2="83.3987" y2="77.2298" gradientUnits="userSpaceOnUse">
<stop stop-color="#FF6E27"/>
<stop offset="0.998" stop-color="#E03347"/>
</linearGradient>
<radialGradient id="paint36_radial" cx="0" cy="0" r="1" gradientUnits="userSpaceOnUse" gradientTransform="translate(105.476 96.0787) scale(16.1776 14.686)">
<stop stop-color="#FFD1A9"/>
<stop offset="0.9944" stop-color="#F99B98"/>
</radialGradient>
<linearGradient id="paint37_linear" x1="127.56" y1="97.6705" x2="127.56" y2="77.2298" gradientUnits="userSpaceOnUse">
<stop stop-color="#FF6E27"/>
<stop offset="0.998" stop-color="#E03347"/>
</linearGradient>
<radialGradient id="paint38_radial" cx="0" cy="0" r="1" gradientUnits="userSpaceOnUse" gradientTransform="translate(149.742 96.0787) scale(15.8899 14.4248)">
<stop stop-color="#FFD1A9"/>
<stop offset="0.9944" stop-color="#F99B98"/>
</radialGradient>
<linearGradient id="paint39_linear" x1="171.879" y1="97.6705" x2="171.879" y2="77.2298" gradientUnits="userSpaceOnUse">
<stop stop-color="#FF6E27"/>
<stop offset="0.998" stop-color="#E03347"/>
</linearGradient>
<radialGradient id="paint40_radial" cx="0" cy="0" r="1" gradientUnits="userSpaceOnUse" gradientTransform="translate(193.954 96.0787) scale(16.2555 14.7567)">
<stop stop-color="#FFD1A9"/>
<stop offset="0.9944" stop-color="#F99B98"/>
</radialGradient>
<linearGradient id="paint41_linear" x1="216.039" y1="97.6705" x2="216.039" y2="77.2298" gradientUnits="userSpaceOnUse">
<stop stop-color="#FF6E27"/>
<stop offset="0.998" stop-color="#E03347"/>
</linearGradient>
<radialGradient id="paint42_radial" cx="0" cy="0" r="1" gradientUnits="userSpaceOnUse" gradientTransform="translate(238.108 96.0787) scale(16.7009 15.161)">
<stop stop-color="#FFD1A9"/>
<stop offset="0.9944" stop-color="#F99B98"/>
</radialGradient>
<linearGradient id="paint43_linear" x1="260.191" y1="97.6705" x2="260.191" y2="77.2298" gradientUnits="userSpaceOnUse">
<stop stop-color="#FF6E27"/>
<stop offset="0.998" stop-color="#E03347"/>
</linearGradient>
<linearGradient id="paint44_linear" x1="149.747" y1="80.0524" x2="149.747" y2="64.1089" gradientUnits="userSpaceOnUse">
<stop stop-color="#FF842A"/>
<stop offset="0.998" stop-color="#FF6354"/>
</linearGradient>
<radialGradient id="paint45_radial" cx="0" cy="0" r="1" gradientUnits="userSpaceOnUse" gradientTransform="translate(15.4632 171.702) rotate(176.233) scale(13.8944)">
<stop stop-color="#EBD7E3"/>
<stop offset="0.9829" stop-color="#BDAFD2"/>
</radialGradient>
<linearGradient id="paint46_linear" x1="34.3457" y1="161.299" x2="34.0058" y2="156.137" gradientUnits="userSpaceOnUse">
<stop stop-color="#C73E27"/>
<stop offset="0.998" stop-color="#A4152C"/>
</linearGradient>
<linearGradient id="paint47_linear" x1="48.4418" y1="226.949" x2="43.7737" y2="156.052" gradientUnits="userSpaceOnUse">
<stop stop-color="#FF8647"/>
<stop offset="1" stop-color="#FFB934"/>
</linearGradient>
<linearGradient id="paint48_linear" x1="19.8433" y1="228.831" x2="15.3619" y2="160.771" gradientUnits="userSpaceOnUse">
<stop offset="0.00198413" stop-color="#C93347"/>
<stop offset="1" stop-color="#FF7527"/>
</linearGradient>
<linearGradient id="paint49_linear" x1="44.0284" y1="167.821" x2="44.0284" y2="134.518" gradientUnits="userSpaceOnUse">
<stop offset="0.0171145" stop-color="#BD8BD2"/>
<stop offset="1" stop-color="#EBD7E3"/>
</linearGradient>
</defs>
</svg>
