<svg width="512" height="512" viewBox="0 0 512 512" fill="none" xmlns="http://www.w3.org/2000/svg">
<path d="M150.899 185.584H182.598C178.941 202.831 177.534 220.734 177.534 238.012C177.534 243.148 181.7 247.314 186.836 247.314C191.971 247.314 196.138 243.148 196.138 238.012C196.138 220.8 197.59 202.728 201.601 185.584H309.921C313.932 202.728 315.384 220.8 315.384 238.012C315.384 243.148 319.551 247.314 324.686 247.314C329.822 247.314 333.988 243.148 333.988 238.012C333.988 220.734 332.581 202.831 328.924 185.584H362.005C364.508 185.584 366.549 187.561 366.652 190.039L383.85 399.65L383.854 399.65C384.064 402.21 382.159 404.456 379.599 404.666C379.469 404.677 379.34 404.682 379.212 404.682H133.651C131.082 404.682 129 402.599 129 400.031C129 399.835 129.012 399.642 129.036 399.452L146.232 189.872L150.865 190.236L146.229 189.855C146.43 187.412 148.486 185.564 150.9 185.585L150.899 185.584Z" fill="black"/>
<path d="M182.185 238.004C182.185 240.573 184.267 242.656 186.836 242.656C189.404 242.656 191.487 240.573 191.487 238.004C191.487 178.989 208.524 141.476 230.331 125.282C238.392 119.296 247.095 116.303 255.761 116.303C264.427 116.303 273.131 119.296 281.192 125.282C302.998 141.476 320.035 178.988 320.035 238.004C320.035 240.573 322.118 242.655 324.686 242.655C327.255 242.655 329.338 240.573 329.338 238.004C329.338 175.721 310.643 135.602 286.715 117.833C276.99 110.611 266.394 107 255.761 107C245.128 107 234.532 110.611 224.807 117.832C200.879 135.602 182.185 175.722 182.185 238.004V238.004Z" fill="black"/>
<path d="M512 256C512 397.385 397.385 512 256 512C114.615 512 0 397.385 0 256C0 114.615 114.615 0 256 0C397.385 0 512 114.615 512 256ZM12.8 256C12.8 390.316 121.684 499.2 256 499.2C390.316 499.2 499.2 390.316 499.2 256C499.2 121.684 390.316 12.8 256 12.8C121.684 12.8 12.8 121.684 12.8 256Z" fill="black"/>
</svg>
