<svg id="Layer_1" enable-background="new 0 0 512.001 512.001" height="512" viewBox="0 0 512.001 512.001" width="512" xmlns="http://www.w3.org/2000/svg"><g><path d="m502.001 181.001h-122.002c-13.241.486-13.256 19.508 0 20h51.001v19.999h-69.647c-38.036-56.499-26.961-49.934-95.355-50-.494-13.252-19.517-13.245-20.004 0-68.567.071-57.276-6.458-95.345 50h-69.649v-19.999h51c5.523 0 10-4.478 10-10s-4.477-10-10-10h-122c-5.523 0-10 4.478-10 10s4.477 10 10 10h51v19.999c-18.74-1.673-34.695 10.709-35 30 0 16.542 13.458 30 30 30h56.692l-17.592 30.47c-2.664 4.635-4.069 9.792-4.065 14.905v74.626c1.497 39.723 58.492 39.753 60.001 0v-66.76l19.482-33.743c3.546.807 11.762.419 15.482.502v100.001c0 16.542 13.458 30 30 30h80c16.542 0 30-13.458 30-30v-100.001c3.765-.084 11.895.306 15.483-.502l19.481 33.743v66.761c1.501 39.727 58.491 39.751 60 0v-74.615c.006-5.12-1.399-10.277-4.074-14.933 0 0-17.582-30.453-17.582-30.453h56.692c16.542 0 30-13.458 30-30-.308-19.293-16.258-31.672-35-30v-19.999h51.001c5.522 0 10-4.478 10-10s-4.478-10.001-10-10.001zm-369.625 145.56c-.878 1.521-1.34 3.244-1.34 5v69.44c0 5.514-4.486 10-10 10s-10-4.486-10-10v-74.635c-.001-1.624.484-3.328 1.395-4.913l23.355-40.453h11.927c1.243 3.505 3.12 6.712 5.492 9.483zm173.624 74.44c0 5.514-4.486 10-10 10h-80c-5.514 0-10-4.486-10-10v-150.001c0-5.514 4.486-10 10-10h80c5.514 0 10 4.486 10 10zm93.56-79.566c.921 1.604 1.407 3.308 1.405 4.94v74.626c0 5.514-4.486 10-10 10s-10-4.486-10-10v-69.44c0-1.756-.462-3.479-1.34-5l-20.83-36.077c2.372-2.771 4.249-5.979 5.492-9.483h11.927zm66.44-70.435c0 5.514-4.486 10-10 10h-99.999c-5.522 0-10 4.478-10 10 0 5.514-4.486 10-10 10h-10.001v-30c0-16.542-13.458-30-30-30h-80c-16.542 0-30 13.458-30 30v30h-10c-5.514 0-10-4.486-10-10 0-5.522-4.477-10-10-10h-100c-5.514 0-10-4.486-10-10s4.486-10 10-10h100c3.344 0 6.466-1.671 8.32-4.453l20-30c3.623-5.434 10.366-15.547 16.68-15.547h110c6.313 0 13.056 10.114 16.679 15.547l20.001 30c1.854 2.782 4.977 4.453 8.32 4.453h100c5.514 0 10 4.486 10 10z"/><path d="m266.001 332.715v-61.714c0-5.522-4.478-10-10-10s-10 4.478-10 10v61.714c-31.316 11.59-23.816 57.648 10 58.286 33.821-.641 41.311-46.702 10-58.286zm-10.001 38.286c-5.514 0-10-4.486-10-10 .503-13.248 19.499-13.244 20 0 .001 5.514-4.485 10-10 10z"/><path d="m206.5 121.503c13.221-13.222 30.8-20.503 49.497-20.503 18.698 0 36.277 7.281 49.498 20.503 1.953 1.952 4.512 2.929 7.071 2.929 8.681.154 13.409-10.92 7.071-17.071-16.999-17-39.601-26.361-63.64-26.361s-46.641 9.361-63.64 26.36c-3.905 3.905-3.905 10.237 0 14.143 3.905 3.904 10.237 3.904 14.143 0z"/><path d="m220.642 135.645c-9.031 9.679 4.45 23.179 14.142 14.142 5.667-5.666 13.201-8.787 21.213-8.787 8.013 0 15.546 3.121 21.214 8.787 1.952 1.953 4.511 2.929 7.07 2.929 8.691.152 13.403-10.924 7.07-17.071-18.613-19.397-52.097-19.397-70.709 0z"/></g></svg>