<svg id="Layer_1" enable-background="new 0 0 512.002 512.002" height="512" viewBox="0 0 512.002 512.002" width="512" xmlns="http://www.w3.org/2000/svg"><g><path d="m507.029 247.341-91-52.539v-164.802c0-16.542-13.458-30-30-30h-260c-16.542 0-30 13.458-30 30v164.802l-91 52.539c-3.094 1.786-5 5.087-5 8.66s1.906 6.874 5 8.66l91 52.539v164.802c0 16.542 13.458 30 30 30h260c16.542 0 30-13.458 30-30v-164.802l91-52.539c6.59-3.601 6.595-13.718 0-17.32zm-381.001-227.341h260c5.514 0 10 4.486 10 10v10h-80c-5.523 0-10 4.477-10 10 0 5.514-4.486 10-10 10h-80.001c-5.514 0-10-4.486-10-10 0-5.523-4.477-10-10-10h-80v-10c.002-5.514 4.487-10 10.001-10zm-9.999 40h71.713c4.127 11.641 15.249 20 28.286 20h80.001c13.038 0 24.159-8.359 28.287-20h71.713v123.255l-135-77.943c-3.094-1.786-6.906-1.786-10 0l-135 77.943zm280 146.349v99.305l-140 80.83-140-80.83v-99.305l140-80.83zm-366 49.652 66-38.105v76.211zm356 236.001h-260c-5.514 0-10-4.486-10-10v-10h280v10c0 5.514-4.486 10-10 10zm10-40h-280v-123.254l135 77.943c1.547.893 3.273 1.34 5 1.34s3.453-.447 5-1.34l135-77.943zm20-157.896v-76.211l66 38.105z"/><path d="m181.029 235.069c.487 40.202 41.25 83.314 67.462 113.436 3.767 4.524 11.309 4.532 15.075 0 1.806-2.071 3.742-4.268 5.775-6.575 24.565-27.874 61.688-69.997 61.688-106.861 0-41.355-33.645-75-75-75s-75 33.645-75 75zm130 0c0 28.544-33.657 67.479-55 91.717-21.345-24.239-55-63.174-55-91.717 2.764-72.867 107.248-72.843 110 0z"/><path d="m223.529 235.068c0 17.921 14.58 32.5 32.5 32.5 43.056-1.634 43.045-63.373 0-65-17.921.001-32.5 14.58-32.5 32.5zm45 0c0 6.893-5.607 12.5-12.5 12.5-16.56-.629-16.556-24.374 0-25 6.892.001 12.5 5.608 12.5 12.5z"/></g></svg>