<svg width="512" height="512" viewBox="0 0 512 512" fill="none" xmlns="http://www.w3.org/2000/svg">
<path d="M255.828 462.731C253.268 462.731 250.822 461.715 249.015 459.909L70.7434 281.637C45.1133 256.009 31 221.935 31 185.691C31 149.447 45.1139 115.373 70.7434 89.7433C96.3734 64.1133 130.443 50 166.692 50C199.812 50 231.119 61.785 255.827 83.3734C280.531 61.7843 311.835 50 344.954 50C381.197 50 415.277 64.1133 440.901 89.7433C466.532 115.373 480.645 149.448 480.645 185.691C480.645 221.935 466.532 256.01 440.901 281.638L262.635 459.91C260.828 461.715 258.377 462.731 255.828 462.731ZM166.692 69.2691C135.59 69.2691 106.357 81.3785 84.3677 103.367C62.3792 125.356 50.2698 154.594 50.2698 185.691C50.2698 216.787 62.3792 246.021 84.3677 268.012L255.828 439.471L427.278 268.012C449.267 246.021 461.376 216.787 461.376 185.691C461.376 154.594 449.267 125.356 427.278 103.367C405.29 81.3785 376.051 69.2691 344.955 69.2691C313.858 69.2691 284.624 81.3785 262.64 103.367C259.022 106.98 252.629 106.98 249.016 103.367C227.027 81.3785 197.788 69.2691 166.692 69.2691Z" fill="black"/>
</svg>
