<svg width="512" height="512" viewBox="0 0 512 512" fill="none" xmlns="http://www.w3.org/2000/svg">
<path d="M256.055 459.928C254.22 459.928 252.46 459.199 251.163 457.901C249.865 456.604 249.136 454.844 249.136 453.009V264.261C249.136 262.426 249.865 260.666 251.163 259.368C252.46 258.071 254.22 257.342 256.055 257.342C257.89 257.342 259.65 258.071 260.948 259.368C262.245 260.666 262.974 262.426 262.974 264.261V443.544L429.665 390.503V272.467C429.665 270.632 430.394 268.872 431.691 267.574C432.989 266.277 434.749 265.548 436.584 265.548C438.419 265.548 440.178 266.277 441.476 267.574C442.774 268.872 443.502 270.632 443.502 272.467V395.561C443.501 397.032 443.031 398.465 442.16 399.65C441.289 400.836 440.063 401.713 438.659 402.155L258.117 459.582C257.451 459.8 256.756 459.916 256.055 459.928V459.928Z" fill="black"/>
<path d="M313.517 328.648C311.682 328.648 309.922 327.918 308.625 326.621L251.198 269.194C250.391 268.387 249.796 267.394 249.466 266.301C249.137 265.209 249.082 264.053 249.307 262.934C249.533 261.816 250.031 260.77 250.758 259.891C251.485 259.012 252.418 258.326 253.474 257.895L434.003 183.994C435.316 183.458 436.763 183.338 438.146 183.651C439.53 183.964 440.784 184.695 441.738 185.745L496.439 245.939C497.189 246.766 497.728 247.761 498.01 248.841C498.292 249.92 498.308 251.052 498.058 252.14C497.808 253.227 497.299 254.238 496.573 255.086C495.848 255.934 494.929 256.594 493.893 257.01L316.077 328.15C315.263 328.477 314.394 328.646 313.517 328.648V328.648ZM268.322 266.724L315.184 313.586L479.495 247.856L434.757 198.648L268.322 266.724Z" fill="black"/>
<path d="M198.628 328.649C197.747 328.649 196.873 328.48 196.055 328.151L18.2592 256.99C17.2237 256.574 16.3041 255.914 15.5788 255.066C14.8535 254.218 14.3441 253.208 14.094 252.12C13.8439 251.033 13.8605 249.901 14.1424 248.821C14.4243 247.742 14.9632 246.746 15.713 245.92L70.414 185.725C71.3684 184.676 72.6223 183.945 74.006 183.632C75.3896 183.318 76.8361 183.438 78.1493 183.975L258.692 257.855C259.748 258.286 260.681 258.972 261.408 259.851C262.135 260.73 262.633 261.776 262.859 262.894C263.084 264.012 263.029 265.169 262.7 266.261C262.37 267.353 261.775 268.347 260.968 269.153L203.541 326.581C202.9 327.233 202.135 327.752 201.292 328.107C200.449 328.462 199.543 328.646 198.628 328.649V328.649ZM32.6575 247.843L196.968 313.573L243.823 266.725L77.3952 198.643L32.6575 247.843Z" fill="black"/>
<path d="M256.055 459.928C255.351 459.925 254.651 459.815 253.98 459.603L73.4375 402.176C72.034 401.734 70.8078 400.857 69.9369 399.671C69.0659 398.485 68.5956 397.053 68.5942 395.582V272.467C68.5942 270.632 69.3232 268.872 70.6207 267.574C71.9183 266.277 73.6781 265.548 75.5132 265.548C77.3482 265.548 79.108 266.277 80.4056 267.574C81.7031 268.872 82.4321 270.632 82.4321 272.467V390.503L249.137 443.551V264.261C249.137 262.426 249.865 260.666 251.163 259.368C252.461 258.071 254.22 257.342 256.055 257.342C257.89 257.342 259.65 258.071 260.948 259.368C262.245 260.666 262.974 262.426 262.974 264.261V453.009C262.974 454.844 262.245 456.604 260.948 457.901C259.65 459.199 257.89 459.928 256.055 459.928V459.928Z" fill="black"/>
<path d="M436.584 197.32C435.687 197.32 434.799 197.147 433.968 196.808L253.454 122.949C252.398 122.517 251.464 121.832 250.737 120.952C250.01 120.073 249.512 119.028 249.287 117.91C249.061 116.791 249.116 115.634 249.446 114.542C249.776 113.45 250.371 112.457 251.178 111.65L308.605 54.2229C309.563 53.2652 310.781 52.6098 312.108 52.338C313.435 52.0662 314.813 52.1899 316.07 52.6939L493.886 123.848C494.922 124.264 495.841 124.924 496.567 125.772C497.292 126.62 497.801 127.631 498.051 128.718C498.302 129.805 498.285 130.937 498.003 132.017C497.721 133.097 497.182 134.092 496.432 134.918L441.732 195.113C441.075 195.819 440.277 196.381 439.391 196.761C438.504 197.141 437.548 197.331 436.584 197.32ZM268.323 114.079L434.757 182.161L479.481 132.96L315.171 67.2305L268.323 114.079Z" fill="black"/>
<path d="M75.534 197.32C74.5701 197.32 73.6167 197.119 72.735 196.73C71.8533 196.34 71.0627 195.77 70.414 195.057L15.713 134.918C14.9632 134.092 14.4243 133.096 14.1424 132.017C13.8605 130.937 13.8439 129.805 14.094 128.718C14.3441 127.63 14.8535 126.62 15.5788 125.772C16.3041 124.924 17.2237 124.264 18.2592 123.848L196.075 52.7075C197.333 52.2036 198.711 52.0798 200.038 52.3517C201.365 52.6235 202.583 53.2789 203.541 54.2366L260.968 111.664C261.775 112.47 262.37 113.464 262.7 114.556C263.029 115.648 263.084 116.805 262.859 117.923C262.633 119.042 262.135 120.087 261.408 120.966C260.681 121.845 259.748 122.531 258.692 122.962L78.1839 196.808C77.3428 197.151 76.4424 197.325 75.534 197.32V197.32ZM32.6367 132.974L77.3744 182.181L243.802 114.099L196.961 67.2165L32.6367 132.974Z" fill="black"/>
</svg>
