<svg id="Layer_1" enable-background="new 0 0 512.002 512.002" height="512" viewBox="0 0 512.002 512.002" width="512" xmlns="http://www.w3.org/2000/svg"><g><path d="m476.001 0h-440c-5.523 0-10 4.478-10 10v70.001c0 13.037 8.359 24.158 20 28.285v103.716c-2.281 108.642 91.577 206.824 200 209.764.223 13.561 19.78 13.556 19.998 0 108.43-2.945 202.28-101.12 200.001-209.766.002.001.002-103.714.002-103.714 11.64-4.127 20-15.248 20-28.285v-70.001c-.001-5.522-4.478-10-10.001-10zm-430 20h420v60.001c0 5.514-4.486 9.999-10 9.999h-400c-5.514 0-10-4.485-10-9.999zm344.179 326.181c-71.026 73.932-197.335 73.936-268.358-.002-70.291-69.349-54.237-147.935-55.821-236.179h380c-1.543 88.192 14.38 167.02-55.821 236.181z"/><path d="m169.634 65h172.734c5.523 0 10-4.478 10-10s-4.477-10-10-10h-172.734c-13.201.467-13.293 19.495 0 20z"/><path d="m305.498 471.499c-13.221 13.222-30.8 20.503-49.498 20.503-18.697 0-36.276-7.281-49.497-20.503-3.905-3.904-10.237-3.904-14.143 0-3.905 3.905-3.905 10.237 0 14.143 16.999 16.999 39.6 26.36 63.64 26.36s46.641-9.361 63.64-26.36c3.905-3.905 3.905-10.237 0-14.143-3.904-3.904-10.236-3.904-14.142 0z"/><path d="m291.356 457.358c9.032-9.679-4.45-23.179-14.142-14.142-5.666 5.666-13.2 8.786-21.214 8.786s-15.547-3.12-21.213-8.786c-3.905-3.904-10.237-3.904-14.142 0-3.905 3.906-3.905 10.237 0 14.143 18.612 19.395 52.101 19.395 70.711-.001z"/><path d="m256.001 182.002c-55.14 0-100 44.859-100 100 5.027 132.481 194.993 132.445 200-.001 0-55.14-44.86-99.999-100-99.999zm0 180c-44.112 0-80-35.888-80-80 4.022-105.985 155.994-105.956 160 .001 0 44.111-35.888 79.999-80 79.999z"/><path d="m256.001 242.002c-22.056 0-40 17.944-40 40 2.011 52.993 77.997 52.978 80-.001 0-22.055-17.944-39.999-40-39.999zm0 60c-11.028 0-20-8.972-20-20 1.005-26.496 38.999-26.489 40 0 0 11.028-8.972 20-20 20z"/><path d="m121.001 130c-19.299 0-35 15.701-35 35 1.76 46.368 68.248 46.356 70.001 0-.001-19.299-15.702-35-35.001-35zm0 50c-8.271 0-15-6.729-15-15 .754-19.872 29.25-19.867 30.001 0-.001 8.271-6.73 15-15.001 15z"/></g></svg>