<svg id="Layer_1" enable-background="new 0 0 512.001 512.001" height="512" viewBox="0 0 512.001 512.001" width="512" xmlns="http://www.w3.org/2000/svg"><g><path d="m256.033 81c-98.174-.801-155.674 115.249-95.482 192.691 29.353 38.501 30.482 42.171 30.482 59.309v66c0 17.645 14.355 32 32 32h23v71c0 5.523 4.477 10 10 10s10-4.477 10-10v-71h23c17.645 0 32-14.355 32-32v-66c0-17.138 1.129-20.808 30.484-59.31 60.199-77.389 2.658-193.543-95.484-192.69zm45 262.001v24h-90v-24zm-12 68h-66c-6.617 0-12-5.383-12-12v-12h90v12c0 6.617-5.384 12-12 12zm46.579-149.436c-26.719 35.045-32.924 45.928-34.247 61.436h-90.665c-1.804-37.057-56.449-65.515-54.667-122 0-55.141 44.859-100 100-100 81.779-.691 129.736 96.046 79.579 160.564z"/><path d="m256.033 151.001c-24.04 0-46.641 9.362-63.64 26.361-3.905 3.905-3.905 10.237 0 14.142s10.237 3.905 14.142 0c26.055-27.156 72.94-27.155 98.994.001 1.953 1.952 4.512 2.928 7.071 2.928 8.68.154 13.409-10.92 7.071-17.071-16.997-16.999-39.598-26.361-63.638-26.361z"/><path d="m256.033 191.001c-13.355 0-25.912 5.201-35.355 14.644-9.031 9.68 4.452 23.181 14.143 14.142 11.166-11.638 31.26-11.637 42.426 0 9.668 9.033 23.186-4.453 14.142-14.143-9.445-9.442-22.001-14.643-35.356-14.643z"/><path d="m256.029 231.001c-5.523 0-10 4.477-10 10 .49 13.251 19.519 13.249 20.004 0 0-5.523-4.481-10-10.004-10z"/><path d="m256.033 56c5.523 0 10-4.477 10-10v-36c0-5.523-4.477-10-10-10s-10 4.477-10 10v36c0 5.523 4.477 10 10 10z"/><path d="m328.533 75.427c4.698 2.737 10.883 1.166 13.66-3.66 0 0 18-31.178 18-31.178 6.221-11.679-10.299-21.241-17.32-10 0 0-18 31.178-18 31.178-2.762 4.782-1.124 10.899 3.66 13.66z"/><path d="m390.276 133.502c1.696 0 3.416-.433 4.991-1.342l31.177-18c11.229-7.003 1.698-23.548-10-17.32 0 0-31.177 18-31.177 18-8.844 5.172-5.086 18.657 5.009 18.662z"/><path d="m447.034 191.001h-36c-13.241.486-13.256 19.509 0 20h36c13.24-.486 13.255-19.509 0-20z"/><path d="m426.444 287.841-31.177-18c-4.783-2.763-10.898-1.123-13.66 3.66s-1.123 10.899 3.66 13.66l31.177 18c1.575.91 3.294 1.342 4.991 1.342 10.086-.006 13.861-13.483 5.009-18.662z"/><path d="m169.872 71.767c7.047 11.255 23.54 1.655 17.32-10 0 0-18-31.178-18-31.178-2.761-4.784-8.878-6.422-13.66-3.66-4.783 2.761-6.422 8.877-3.66 13.66z"/><path d="m126.798 114.84-31.177-18c-4.781-2.76-10.898-1.123-13.66 3.66s-1.123 10.899 3.66 13.66l31.177 18c1.575.91 3.294 1.342 4.991 1.342 10.086-.006 13.862-13.482 5.009-18.662z"/><path d="m111.032 201.001c0-5.523-4.477-10-10-10h-36c-5.523 0-10 4.477-10 10s4.477 10 10 10h36c5.523 0 10-4.477 10-10z"/><path d="m116.798 269.841-31.177 18c-11.257 7.043-1.646 23.545 10 17.32 0 0 31.177-18 31.177-18 11.229-7.003 1.699-23.547-10-17.32z"/></g></svg>