<svg width="512" height="512" viewBox="0 0 512 512" fill="none" xmlns="http://www.w3.org/2000/svg">
<path d="M358.4 512H151.04C108.8 512 75.52 477.44 75.52 436.48V204.8C75.52 197.12 80.64 192 88.32 192C96 192 101.12 197.12 101.12 204.8V436.48C101.12 464.64 124.16 486.4 151.04 486.4H358.4C386.56 486.4 408.32 463.36 408.32 436.48V204.8C408.32 197.12 413.44 192 421.12 192C428.8 192 433.92 197.12 433.92 204.8V436.48C433.92 477.44 399.36 512 358.4 512Z" fill="black"/>
<path d="M426.24 62.72H328.96C322.56 26.88 291.84 0 254.72 0C217.6 0 186.88 26.88 180.48 62.72H83.2C53.76 62.72 30.72 85.76 30.72 115.2C30.72 144.64 53.76 166.4 83.2 166.4H427.52C456.96 166.4 480 143.36 480 113.92C480 84.48 455.68 62.72 426.24 62.72ZM254.72 25.6C277.76 25.6 296.96 40.96 302.08 62.72H206.08C212.48 40.96 231.68 25.6 254.72 25.6ZM426.24 140.8H83.2C69.12 140.8 56.32 129.28 56.32 113.92C56.32 99.84 67.84 87.04 83.2 87.04H427.52C441.6 87.04 454.4 98.56 454.4 113.92C453.12 129.28 441.6 140.8 426.24 140.8Z" fill="black"/>
<path d="M165.12 449.28C157.44 449.28 152.32 444.16 152.32 436.48V222.72C152.32 215.04 157.44 209.92 165.12 209.92C172.8 209.92 177.92 215.04 177.92 222.72V436.48C177.92 442.88 171.52 449.28 165.12 449.28Z" fill="black"/>
<path d="M344.32 449.28C336.64 449.28 331.52 444.16 331.52 436.48V222.72C331.52 215.04 336.64 209.92 344.32 209.92C352 209.92 357.12 215.04 357.12 222.72V436.48C357.12 442.88 350.72 449.28 344.32 449.28Z" fill="black"/>
<path d="M254.72 449.28C247.04 449.28 241.92 444.16 241.92 436.48V222.72C241.92 215.04 247.04 209.92 254.72 209.92C262.4 209.92 267.52 215.04 267.52 222.72V436.48C267.52 442.88 261.12 449.28 254.72 449.28Z" fill="black"/>
</svg>
