<svg width="512" height="512" viewBox="0 0 512 512" fill="none" xmlns="http://www.w3.org/2000/svg">
<path d="M256 76C279.339 76 301.722 85.2779 318.225 101.793C334.729 118.307 344 140.706 344 164.062C344 187.417 334.729 209.816 318.225 226.33C301.722 242.845 279.339 252.123 256 252.123C232.661 252.123 210.278 242.845 193.775 226.33C177.271 209.816 168 187.417 168 164.062C168 140.706 177.271 118.307 193.775 101.793C210.278 85.2779 232.661 76 256 76ZM256 296.154C353.24 296.154 432 335.561 432 384.215V428.246L366.815 480.431L256.5 507.5L145.185 480.431L80 428.246V384.215C80 335.561 158.76 296.154 256 296.154Z" fill="black"/>
<path d="M512 256C512 397.385 397.385 512 256 512C114.615 512 0 397.385 0 256C0 114.615 114.615 0 256 0C397.385 0 512 114.615 512 256ZM12.8 256C12.8 390.316 121.684 499.2 256 499.2C390.316 499.2 499.2 390.316 499.2 256C499.2 121.684 390.316 12.8 256 12.8C121.684 12.8 12.8 121.684 12.8 256Z" fill="black"/>
</svg>
